<svg width="764" height="792" viewBox="0 0 764 792" fill="none" xmlns="http://www.w3.org/2000/svg">
    <g filter="url(#filter0_bd_8_2)">
        <mask id="path-1-inside-1_8_2" fill="white">
            <path d="M94.641 525.713C75.5093 514.667 75.5093 496.759 94.641 485.713L411.107 303.001C430.238 291.956 461.257 291.956 480.389 303.001L660.359 406.907C679.491 417.953 679.491 435.862 660.359 446.907L343.893 629.619C324.762 640.664 293.743 640.664 274.611 629.619L94.641 525.713Z"/>
        </mask>
        <path d="M94.641 525.713C75.5093 514.667 75.5093 496.759 94.641 485.713L411.107 303.001C430.238 291.956 461.257 291.956 480.389 303.001L660.359 406.907C679.491 417.953 679.491 435.862 660.359 446.907L343.893 629.619C324.762 640.664 293.743 640.664 274.611 629.619L94.641 525.713Z" fill="white" fill-opacity="0.1" shape-rendering="crispEdges"/>
        <path d="M60 505.713L445.748 283.001L60 505.713ZM660.359 406.907C681.404 419.058 681.404 438.757 660.359 450.907L347.357 631.619C326.313 643.769 292.192 643.769 271.147 631.619L278.075 627.619C295.294 637.56 323.211 637.56 340.429 627.619L656.895 444.907C676.027 433.862 677.578 416.848 660.359 406.907ZM347.357 631.619C326.313 643.769 292.192 643.769 271.147 631.619L94.641 529.713C73.5961 517.563 73.5961 497.863 94.641 485.713C77.4225 495.654 78.9734 512.667 98.1051 523.713L278.075 627.619C295.294 637.56 323.211 637.56 340.429 627.619L347.357 631.619ZM445.748 283.001L695 426.907L445.748 283.001Z" fill="white" fill-opacity="0.5" mask="url(#path-1-inside-1_8_2)"/>
        <path d="M310.375 589.03L317.005 585.202L324.155 586.018L332.614 590.902L332.677 592.954L324.924 597.43L310.375 589.03ZM314.116 588.934L325.111 595.282L330.099 592.402L330.078 591.718L322.471 587.326L317.816 586.798L314.116 588.934ZM327.264 582.806L333.936 578.954L337.283 579.326L346.781 584.81L344.786 585.962L343.851 585.422L343.227 586.862L338.821 589.406L334.373 588.902L333.458 588.374L333.334 584.51L337.802 581.93L335.079 580.358L329.052 583.838L327.264 582.806ZM336.119 587.558L337.906 587.822L342.915 584.93L339.59 583.01L335.932 585.122L335.994 587.486L336.119 587.558ZM345.962 572.347L347.937 571.207L354.359 574.915L354.526 580.339L352.925 581.263L344.757 580.339L338.438 576.691L340.392 575.563L346.399 579.031L351.99 579.667L351.845 575.743L345.962 572.347ZM351.379 568.788L354.497 566.988L358.799 567.48L366.053 571.668L369.836 569.484L371.582 570.492L362.104 575.964L360.358 574.956L364.141 572.772L357.178 568.752L355.349 568.536L353.146 569.808L351.379 568.788ZM351.525 565.752L353.894 564.384L351.525 563.016L349.155 564.384L351.525 565.752ZM366.461 555.328L368.414 554.2L384.107 563.26L382.153 564.388L381.259 563.872L380.657 565.252L376.416 567.7L372.01 567.22L365.276 563.332L365.172 561.256L369.454 558.784L371.844 558.436L366.461 555.328ZM373.694 565.936L375.523 566.152L379.825 563.668L379.825 563.044L373.839 559.588L372.031 559.384L367.749 561.856L367.77 562.516L373.694 565.936ZM384.943 545.978L386.896 544.85L387.354 545.114L392.779 545.726L392.467 541.634L394.441 540.494L408.991 548.894L407.016 550.034L395.044 543.122L395.231 545.438L396.915 546.41L395.106 547.454L394.982 547.382L390.388 546.866L401.446 553.25L399.492 554.378L384.943 545.978ZM402.04 539.634L408.712 535.782L412.059 536.154L421.557 541.638L419.562 542.79L418.626 542.25L418.003 543.69L413.597 546.234L409.149 545.73L408.234 545.202L408.109 541.338L412.578 538.758L409.855 537.186L403.828 540.666L402.04 539.634ZM410.895 544.386L412.682 544.65L417.691 541.758L414.366 539.838L410.708 541.95L410.77 544.314L410.895 544.386ZM413.11 533.603L414.191 532.979L417.267 532.523L417.226 531.227L421.653 528.671L424.604 529.007L424.126 530.435L422.505 530.243L419.761 531.827L419.803 532.811L426.558 536.711L429.509 535.007L431.276 536.027L424.293 540.059L422.526 539.039L424.625 537.827L418.078 534.047L416.249 533.855L414.898 534.635L413.11 533.603ZM423.391 522.628L425.344 521.5L429.688 524.008L433.056 522.064L434.864 523.108L431.497 525.052L438.002 528.808L439.831 529.024L441.827 527.872L441.806 526.348L444.3 526.612L444.404 528.448L440.683 530.596L436.381 530.128L429.543 526.18L427.901 527.128L426.093 526.084L427.735 525.136L423.391 522.628ZM438.618 518.42L441.735 516.62L446.038 517.112L453.292 521.3L457.074 519.116L458.82 520.124L449.343 525.596L447.597 524.588L451.379 522.404L444.417 518.384L442.588 518.168L440.384 519.44L438.618 518.42ZM438.181 515.792L436.311 515.576L437.641 511.88L440.384 512.144L438.181 515.792ZM450.623 511.945L452.577 510.817L453.471 511.333L454.073 509.953L458.376 507.469L462.678 507.937L471.304 512.917L469.329 514.057L460.995 509.245L459.207 509.053L454.925 511.525L454.946 512.185L463.759 517.273L461.805 518.401L450.623 511.945ZM464.832 503.742L470.755 500.322L475.12 500.778L475.224 504.894L471.212 507.21L473.27 508.398L475.162 508.602L479.422 506.142L479.443 504.81L481.896 504.978L481.937 506.778L476.014 510.198L471.732 509.718L464.894 505.77L464.832 503.742ZM467.43 505.026L469.529 506.238L472.813 504.342L472.709 502.074L471.545 501.93L467.409 504.318L467.43 505.026ZM475.631 497.507L484.943 492.131L487.125 493.391L487.375 501.575L494.338 497.555L496.125 498.587L486.814 503.963L485.109 502.979L484.839 494.471L484.652 494.363L477.419 498.539L475.631 497.507Z" fill="#EEF1FA"/>
        <path d="M263.664 559.72L265.597 558.604L268.403 560.224L270.211 558.172L272.643 558.904L270.855 560.92L274.763 561.304L274.326 562.876L270.398 562.504L271.042 564.772L268.32 565.024L267.675 562.756L264.163 563.8L262.936 562.372L266.47 561.34L263.664 559.72ZM276.126 552.525L278.059 551.409L280.865 553.029L282.674 550.977L285.105 551.709L283.318 553.725L287.225 554.109L286.789 555.681L282.861 555.309L283.505 557.577L280.782 557.829L280.138 555.561L276.625 556.605L275.399 555.177L278.932 554.145L276.126 552.525ZM288.589 545.33L290.522 544.214L293.328 545.834L295.136 543.782L297.568 544.514L295.781 546.53L299.688 546.914L299.252 548.486L295.323 548.114L295.968 550.382L293.245 550.634L292.601 548.366L289.088 549.41L287.862 547.982L291.395 546.95L288.589 545.33ZM301.052 538.134L302.985 537.018L305.791 538.638L307.599 536.586L310.031 537.318L308.243 539.334L312.151 539.718L311.714 541.29L307.786 540.918L308.43 543.186L305.708 543.438L305.063 541.17L301.551 542.214L300.324 540.786L303.858 539.754L301.052 538.134ZM325.977 523.744L327.91 522.628L330.716 524.248L332.524 522.196L334.956 522.928L333.169 524.944L337.076 525.328L336.64 526.9L332.711 526.528L333.356 528.796L330.633 529.048L329.989 526.78L326.476 527.824L325.25 526.396L328.783 525.364L325.977 523.744ZM338.44 516.548L340.373 515.432L343.179 517.052L344.987 515L347.419 515.732L345.631 517.748L349.539 518.132L349.102 519.704L345.174 519.332L345.818 521.6L343.095 521.852L342.451 519.584L338.939 520.628L337.712 519.2L341.246 518.168L338.44 516.548ZM350.902 509.353L352.835 508.237L355.641 509.857L357.45 507.805L359.881 508.537L358.094 510.553L362.001 510.937L361.565 512.509L357.637 512.137L358.281 514.405L355.558 514.657L354.914 512.389L351.401 513.433L350.175 512.005L353.708 510.973L350.902 509.353ZM363.365 502.158L365.298 501.042L368.104 502.662L369.912 500.61L372.344 501.342L370.556 503.358L374.464 503.742L374.028 505.314L370.099 504.942L370.744 507.21L368.021 507.462L367.376 505.194L363.864 506.238L362.638 504.81L366.171 503.778L363.365 502.158ZM388.29 487.767L390.223 486.651L393.029 488.271L394.837 486.219L397.269 486.951L395.482 488.967L399.389 489.351L398.953 490.923L395.025 490.551L395.669 492.819L392.946 493.071L392.302 490.803L388.789 491.847L387.563 490.419L391.096 489.387L388.29 487.767ZM400.753 480.572L402.686 479.456L405.492 481.076L407.3 479.024L409.732 479.756L407.944 481.772L411.852 482.156L411.415 483.728L407.487 483.356L408.131 485.624L405.409 485.876L404.764 483.608L401.252 484.652L400.025 483.224L403.559 482.192L400.753 480.572ZM413.216 473.377L415.149 472.261L417.954 473.881L419.763 471.829L422.195 472.561L420.407 474.577L424.315 474.961L423.878 476.533L419.95 476.161L420.594 478.429L417.871 478.681L417.227 476.413L413.714 477.457L412.488 476.029L416.022 474.997L413.216 473.377ZM425.678 466.181L427.611 465.065L430.417 466.685L432.225 464.633L434.657 465.365L432.87 467.381L436.777 467.765L436.341 469.337L432.412 468.965L433.057 471.233L430.334 471.485L429.69 469.217L426.177 470.261L424.951 468.833L428.484 467.801L425.678 466.181ZM450.604 451.791L452.537 450.675L455.342 452.295L457.151 450.243L459.582 450.975L457.795 452.991L461.703 453.375L461.266 454.947L457.338 454.575L457.982 456.843L455.259 457.095L454.615 454.827L451.102 455.871L449.876 454.443L453.409 453.411L450.604 451.791ZM463.066 444.595L464.999 443.479L467.805 445.099L469.613 443.047L472.045 443.779L470.258 445.795L474.165 446.179L473.729 447.751L469.8 447.379L470.445 449.647L467.722 449.899L467.078 447.631L463.565 448.675L462.339 447.247L465.872 446.215L463.066 444.595ZM475.529 437.4L477.462 436.284L480.268 437.904L482.076 435.852L484.508 436.584L482.72 438.6L486.628 438.984L486.191 440.556L482.263 440.184L482.907 442.452L480.185 442.704L479.54 440.436L476.028 441.48L474.801 440.052L478.335 439.02L475.529 437.4ZM487.991 430.205L489.924 429.089L492.73 430.709L494.539 428.657L496.97 429.389L495.183 431.405L499.09 431.789L498.654 433.361L494.726 432.989L495.37 435.257L492.647 435.509L492.003 433.241L488.49 434.285L487.264 432.857L490.797 431.825L487.991 430.205Z" fill="#EEF1FA"/>
    </g>
    <g filter="url(#filter1_bd_8_2)">
        <mask id="path-5-inside-2_8_2" fill="white">
            <path d="M98.3881 385.047C79.2564 374.001 79.2564 356.093 98.3881 345.047L414.854 162.335C433.985 151.29 465.004 151.29 484.136 162.335L664.106 266.241C683.238 277.287 683.238 295.196 664.106 306.241L347.64 488.953C328.509 499.998 297.49 499.998 278.358 488.953L98.3881 385.047Z"/>
        </mask>
        <path d="M98.3881 385.047C79.2564 374.001 79.2564 356.093 98.3881 345.047L414.854 162.335C433.985 151.29 465.004 151.29 484.136 162.335L664.106 266.241C683.238 277.287 683.238 295.196 664.106 306.241L347.64 488.953C328.509 499.998 297.49 499.998 278.358 488.953L98.3881 385.047Z" fill="white" fill-opacity="0.1" shape-rendering="crispEdges"/>
        <path d="M63.7471 365.047L449.495 142.335L63.7471 365.047ZM664.106 266.241C685.151 278.392 685.151 298.091 664.106 310.241L351.105 490.953C330.06 503.103 295.939 503.103 274.894 490.953L281.822 486.953C299.041 496.894 326.958 496.894 344.176 486.953L660.642 304.241C679.774 293.196 681.325 276.182 664.106 266.241ZM351.105 490.953C330.06 503.103 295.939 503.103 274.894 490.953L98.3881 389.047C77.3432 376.897 77.3432 357.197 98.3881 345.047C81.1696 354.988 82.7205 372.001 101.852 383.047L281.822 486.953C299.041 496.894 326.958 496.894 344.176 486.953L351.105 490.953ZM449.495 142.335L698.747 286.241L449.495 142.335Z" fill="white" fill-opacity="0.5" mask="url(#path-5-inside-2_8_2)"/>
        <path d="M321.417 444.152L323.392 443.012L327.008 445.1L327.112 449.528L334.158 453.596L332.204 454.724L325.345 450.764L315.992 449.708L313.893 448.496L315.847 447.368L317.676 448.424L324.556 449.204L324.597 449.18L324.472 445.916L321.417 444.152ZM331.012 442.14L337.683 438.288L341.03 438.66L350.528 444.144L348.533 445.296L347.598 444.756L346.974 446.196L342.568 448.74L338.12 448.236L337.205 447.708L337.081 443.844L341.549 441.264L338.827 439.692L332.799 443.172L331.012 442.14ZM339.866 446.892L341.653 447.156L346.662 444.264L343.337 442.344L339.679 444.456L339.741 446.82L339.866 446.892ZM341.791 436.277L343.744 435.149L344.638 435.665L345.22 434.297L346.218 433.721L348.525 433.997L349.439 431.861L350.375 431.321L354.698 431.801L363.303 436.769L361.328 437.909L353.014 433.109L351.227 432.893L350.292 433.433L350.354 434.093L353.388 435.845L351.414 436.985L348.857 435.509L347.049 435.305L346.093 435.857L346.135 436.529L354.926 441.605L352.973 442.733L341.791 436.277ZM355.126 428.122L358.244 426.322L362.546 426.814L369.8 431.002L373.583 428.818L375.329 429.826L365.851 435.298L364.105 434.29L367.888 432.106L360.925 428.086L359.096 427.87L356.893 429.142L355.126 428.122ZM355.272 425.086L357.641 423.718L355.272 422.35L352.902 423.718L355.272 425.086ZM362.892 419.054L366.009 417.254L368.836 416.846L380.455 423.554L382.284 423.77L385.879 421.694L387.625 422.726L383.115 425.33L378.792 424.85L367.589 418.382L364.658 420.074L362.892 419.054ZM381.34 413.443L387.264 410.023L391.629 410.479L391.732 414.595L387.721 416.911L389.779 418.099L391.67 418.303L395.931 415.843L395.952 414.511L398.404 414.679L398.446 416.479L392.522 419.899L388.241 419.419L381.403 415.471L381.34 413.443ZM383.938 414.727L386.037 415.939L389.321 414.043L389.218 411.775L388.054 411.631L383.917 414.019L383.938 414.727ZM401.132 398.128L408.344 393.964L414.018 394.576L416.2 395.836L416.242 398.188L421.189 398.716L425.2 401.032L423.226 402.172L419.484 400.012L414.496 399.46L412.376 400.684L410.027 401.008L417.635 405.4L415.681 406.528L401.132 398.128ZM404.873 398.032L409.134 400.492L413.748 397.828L413.748 396.7L412.355 395.896L409.155 395.56L404.873 398.032ZM418.749 391.845L424.756 388.377L429.1 388.869L435.875 392.781L435.938 394.833L429.952 398.289L425.587 397.809L418.811 393.897L418.749 391.845ZM427.229 396.525L429.079 396.729L433.36 394.257L433.34 393.621L427.374 390.177L425.566 389.973L421.285 392.445L421.326 393.117L427.229 396.525ZM424.955 383.054L426.888 381.938L432.292 385.058L432.854 383.678L437.177 381.182L441.583 381.686L448.317 385.574L448.359 387.662L444.119 390.11L441.687 390.482L442.581 390.998L440.648 392.114L424.955 383.054ZM433.789 385.922L440.793 389.966L445.844 387.05L445.823 386.39L439.899 382.97L438.05 382.766L433.768 385.238L433.789 385.922ZM437.667 375.882L440.785 374.082L443.612 373.674L455.23 380.382L457.059 380.598L460.655 378.522L462.401 379.554L457.891 382.158L453.568 381.678L442.365 375.21L439.434 376.902L437.667 375.882ZM456.116 370.271L462.04 366.851L466.404 367.307L466.508 371.423L462.497 373.739L464.555 374.927L466.446 375.131L470.707 372.671L470.728 371.339L473.18 371.507L473.222 373.307L467.298 376.727L463.017 376.247L456.178 372.299L456.116 370.271ZM458.714 371.555L460.813 372.767L464.097 370.871L463.993 368.603L462.829 368.459L458.693 370.847L458.714 371.555ZM469.909 357.1L471.863 355.972L487.555 365.032L485.601 366.16L484.708 365.644L484.105 367.024L479.865 369.472L475.458 368.992L468.724 365.104L468.62 363.028L472.902 360.556L475.292 360.208L469.909 357.1ZM477.142 367.708L478.971 367.924L483.273 365.44L483.273 364.816L477.287 361.36L475.479 361.156L471.198 363.628L471.218 364.288L477.142 367.708ZM481.062 355.868L487.069 352.4L491.413 352.892L498.189 356.804L498.251 358.856L492.265 362.312L487.9 361.832L481.124 357.92L481.062 355.868ZM489.542 360.548L491.392 360.752L495.674 358.28L495.653 357.644L489.688 354.2L487.879 353.996L483.598 356.468L483.639 357.14L489.542 360.548Z" fill="#EEF1FA"/>
        <path d="M267.411 419.054L269.344 417.938L272.15 419.558L273.958 417.506L276.39 418.238L274.602 420.254L278.51 420.638L278.073 422.21L274.145 421.838L274.789 424.106L272.067 424.358L271.422 422.09L267.91 423.134L266.683 421.706L270.217 420.674L267.411 419.054ZM279.874 411.859L281.807 410.743L284.612 412.363L286.421 410.311L288.853 411.043L287.065 413.059L290.973 413.443L290.536 415.015L286.608 414.643L287.252 416.911L284.529 417.163L283.885 414.895L280.372 415.939L279.146 414.511L282.679 413.479L279.874 411.859ZM292.336 404.664L294.269 403.548L297.075 405.168L298.883 403.116L301.315 403.848L299.528 405.864L303.435 406.248L302.999 407.82L299.07 407.448L299.715 409.716L296.992 409.968L296.348 407.7L292.835 408.744L291.609 407.316L295.142 406.284L292.336 404.664ZM304.799 397.468L306.732 396.352L309.538 397.972L311.346 395.92L313.778 396.652L311.99 398.668L315.898 399.052L315.461 400.624L311.533 400.252L312.177 402.52L309.455 402.772L308.81 400.504L305.298 401.548L304.071 400.12L307.605 399.088L304.799 397.468ZM329.724 383.078L331.657 381.962L334.463 383.582L336.271 381.53L338.703 382.262L336.916 384.278L340.823 384.662L340.387 386.234L336.458 385.862L337.103 388.13L334.38 388.382L333.736 386.114L330.223 387.158L328.997 385.73L332.53 384.698L329.724 383.078ZM342.187 375.882L344.12 374.766L346.926 376.386L348.734 374.334L351.166 375.066L349.378 377.082L353.286 377.466L352.849 379.038L348.921 378.666L349.565 380.934L346.843 381.186L346.198 378.918L342.686 379.962L341.459 378.534L344.993 377.502L342.187 375.882ZM354.649 368.687L356.582 367.571L359.388 369.191L361.197 367.139L363.628 367.871L361.841 369.887L365.748 370.271L365.312 371.843L361.384 371.471L362.028 373.739L359.305 373.991L358.661 371.723L355.148 372.767L353.922 371.339L357.455 370.307L354.649 368.687ZM367.112 361.492L369.045 360.376L371.851 361.996L373.659 359.944L376.091 360.676L374.304 362.692L378.211 363.076L377.775 364.648L373.846 364.276L374.491 366.544L371.768 366.796L371.124 364.528L367.611 365.572L366.385 364.144L369.918 363.112L367.112 361.492ZM392.037 347.101L393.97 345.985L396.776 347.605L398.585 345.553L401.016 346.285L399.229 348.301L403.136 348.685L402.7 350.257L398.772 349.885L399.416 352.153L396.693 352.405L396.049 350.137L392.536 351.181L391.31 349.753L394.843 348.721L392.037 347.101ZM404.5 339.906L406.433 338.79L409.239 340.41L411.047 338.358L413.479 339.09L411.692 341.106L415.599 341.49L415.163 343.062L411.234 342.69L411.879 344.958L409.156 345.21L408.511 342.942L404.999 343.986L403.773 342.558L407.306 341.526L404.5 339.906ZM416.963 332.711L418.896 331.595L421.702 333.215L423.51 331.163L425.942 331.895L424.154 333.911L428.062 334.295L427.625 335.867L423.697 335.495L424.341 337.763L421.618 338.015L420.974 335.747L417.462 336.791L416.235 335.363L419.769 334.331L416.963 332.711ZM429.425 325.515L431.358 324.399L434.164 326.019L435.972 323.967L438.404 324.699L436.617 326.715L440.524 327.099L440.088 328.671L436.16 328.299L436.804 330.567L434.081 330.819L433.437 328.551L429.924 329.595L428.698 328.167L432.231 327.135L429.425 325.515ZM454.351 311.125L456.284 310.009L459.09 311.629L460.898 309.577L463.33 310.309L461.542 312.325L465.45 312.709L465.013 314.281L461.085 313.909L461.729 316.177L459.006 316.429L458.362 314.161L454.849 315.205L453.623 313.777L457.157 312.745L454.351 311.125ZM466.813 303.929L468.746 302.813L471.552 304.433L473.36 302.381L475.792 303.113L474.005 305.129L477.912 305.513L477.476 307.085L473.547 306.713L474.192 308.981L471.469 309.233L470.825 306.965L467.312 308.009L466.086 306.581L469.619 305.549L466.813 303.929ZM479.276 296.734L481.209 295.618L484.015 297.238L485.823 295.186L488.255 295.918L486.467 297.934L490.375 298.318L489.938 299.89L486.01 299.518L486.654 301.786L483.932 302.038L483.287 299.77L479.775 300.814L478.548 299.386L482.082 298.354L479.276 296.734ZM491.739 289.539L493.672 288.423L496.477 290.043L498.286 287.991L500.718 288.723L498.93 290.739L502.838 291.123L502.401 292.695L498.473 292.323L499.117 294.591L496.394 294.843L495.75 292.575L492.237 293.619L491.011 292.191L494.544 291.159L491.739 289.539Z" fill="#EEF1FA"/>
    </g>
    <g filter="url(#filter2_bd_8_2)">
        <mask id="path-9-inside-3_8_2" fill="white">
            <path d="M103.593 243.007C84.4615 231.961 84.4615 214.053 103.593 203.007L420.059 20.2956C439.19 9.24989 470.209 9.24988 489.341 20.2956L669.311 124.201C688.443 135.247 688.443 153.156 669.311 164.201L352.846 346.913C333.714 357.959 302.695 357.959 283.563 346.913L103.593 243.007Z"/>
        </mask>
        <path d="M103.593 243.007C84.4615 231.961 84.4615 214.053 103.593 203.007L420.059 20.2956C439.19 9.24989 470.209 9.24988 489.341 20.2956L669.311 124.201C688.443 135.247 688.443 153.156 669.311 164.201L352.846 346.913C333.714 357.959 302.695 357.959 283.563 346.913L103.593 243.007Z" fill="white" fill-opacity="0.1" shape-rendering="crispEdges"/>
        <path d="M68.9521 223.007L454.7 0.295578L68.9521 223.007ZM669.311 124.201C690.356 136.352 690.356 156.051 669.311 168.201L356.31 348.913C335.265 361.063 301.144 361.063 280.099 348.913L287.028 344.913C304.246 354.854 332.163 354.854 349.381 344.913L665.847 162.201C684.979 151.156 686.53 134.143 669.311 124.201ZM356.31 348.913C335.265 361.063 301.144 361.063 280.099 348.913L103.593 247.007C82.5483 234.857 82.5483 215.157 103.593 203.007C86.3746 212.948 87.9256 229.961 107.057 241.007L287.028 344.913C304.246 354.854 332.163 354.854 349.381 344.913L356.31 348.913ZM454.7 0.295578L703.952 144.201L454.7 0.295578Z" fill="white" fill-opacity="0.5" mask="url(#path-9-inside-3_8_2)"/>
        <path d="M319.098 306.456L321.052 305.328L332.671 312.036L334.604 312.24L339.405 309.468L337.887 308.592L339.862 307.452L343.167 309.36L335.435 313.824L330.966 313.308L319.098 306.456ZM342.452 296.86L344.427 295.72L355.609 302.176L353.676 303.292L352.761 302.764L352.158 304.168L347.898 306.628L343.533 306.148L334.949 301.192L336.902 300.064L345.196 304.852L347.045 305.056L351.327 302.584L351.285 301.96L342.452 296.86ZM347.869 293.277L350.986 291.477L355.289 291.969L362.543 296.157L366.325 293.973L368.071 294.981L358.593 300.453L356.848 299.445L360.63 297.261L353.668 293.241L351.838 293.025L349.635 294.297L347.869 293.277ZM348.014 290.241L350.384 288.873L348.014 287.505L345.645 288.873L348.014 290.241ZM361.745 285.674L367.585 282.302L370.516 282.626L370.599 284.066L368.396 283.826L364.301 286.19L364.239 286.802L365.611 287.594L367.356 287.762L372.241 284.942L375.941 285.374L378.684 286.958L378.85 288.758L372.179 292.61L369.83 292.31L369.767 290.882L371.306 291.05L376.232 288.206L376.211 287.762L374.34 286.682L373.031 286.55L368.126 289.382L364.01 288.902L361.703 287.57L361.745 285.674ZM385.049 268.379L390.744 265.091L405.293 273.491L403.339 274.619L396.834 270.863L391.575 273.899L398.081 277.655L396.148 278.771L385.153 272.423L385.049 268.379ZM387.584 271.595L389.788 272.867L395.046 269.831L390.577 267.251L387.543 269.003L387.584 271.595ZM393.022 262.624L396.14 260.824L398.966 260.416L410.585 267.124L412.414 267.34L416.01 265.264L417.756 266.296L413.245 268.9L408.922 268.42L397.719 261.952L394.789 263.644L393.022 262.624ZM410.016 253.965L414.713 251.253L417.415 251.517L417.436 252.993L415.627 252.789L412.593 254.541L412.593 255.501L415.856 257.385L419.722 255.153L421.509 256.185L417.644 258.417L424.523 262.389L422.57 263.517L415.69 259.545L414.027 260.505L412.24 259.473L413.902 258.513L410.057 256.293L410.016 253.965ZM423.933 249.817L429.857 246.397L434.222 246.853L434.325 250.969L430.314 253.285L432.372 254.473L434.263 254.677L438.524 252.217L438.545 250.885L440.997 251.053L441.039 252.853L435.115 256.273L430.834 255.793L423.996 251.845L423.933 249.817ZM426.531 251.101L428.63 252.313L431.914 250.417L431.811 248.149L430.647 248.005L426.51 250.393L426.531 251.101ZM423.705 248.389L421.834 248.173L423.164 244.477L425.908 244.741L423.705 248.389ZM434.525 243.702L435.606 243.078L438.682 242.622L438.641 241.326L443.068 238.77L446.019 239.106L445.541 240.534L443.92 240.342L441.176 241.926L441.218 242.91L447.973 246.81L450.924 245.106L452.691 246.126L445.707 250.158L443.941 249.138L446.04 247.926L439.493 244.146L437.664 243.954L436.313 244.734L434.525 243.702ZM448.858 235.427L454.782 232.007L459.147 232.463L459.251 236.579L455.239 238.895L457.297 240.083L459.188 240.287L463.449 237.827L463.47 236.495L465.923 236.663L465.964 238.463L460.041 241.883L455.759 241.403L448.921 237.455L448.858 235.427ZM451.457 236.711L453.556 237.923L456.84 236.027L456.736 233.759L455.572 233.615L451.436 236.003L451.457 236.711ZM459.658 229.191L468.97 223.815L471.152 225.075L471.402 233.259L478.364 229.239L480.152 230.271L470.84 235.647L469.136 234.663L468.866 226.155L468.679 226.047L461.446 230.223L459.658 229.191Z" fill="#EEF1FA"/>
        <path d="M272.616 277.014L274.549 275.898L277.355 277.518L279.163 275.466L281.595 276.198L279.807 278.214L283.715 278.598L283.278 280.17L279.35 279.798L279.995 282.066L277.272 282.318L276.627 280.05L273.115 281.094L271.889 279.666L275.422 278.634L272.616 277.014ZM285.079 269.819L287.012 268.703L289.818 270.323L291.626 268.271L294.058 269.003L292.27 271.019L296.178 271.403L295.741 272.975L291.813 272.603L292.457 274.871L289.734 275.123L289.09 272.855L285.577 273.899L284.351 272.471L287.885 271.439L285.079 269.819ZM297.541 262.624L299.474 261.508L302.28 263.128L304.088 261.076L306.52 261.808L304.733 263.824L308.64 264.208L308.204 265.78L304.275 265.408L304.92 267.676L302.197 267.928L301.553 265.66L298.04 266.704L296.814 265.276L300.347 264.244L297.541 262.624ZM310.004 255.429L311.937 254.313L314.743 255.933L316.551 253.881L318.983 254.613L317.195 256.629L321.103 257.013L320.666 258.585L316.738 258.213L317.382 260.481L314.66 260.733L314.015 258.465L310.503 259.509L309.276 258.081L312.81 257.049L310.004 255.429ZM334.929 241.038L336.862 239.922L339.668 241.542L341.476 239.49L343.908 240.222L342.121 242.238L346.028 242.622L345.592 244.194L341.663 243.822L342.308 246.09L339.585 246.342L338.941 244.074L335.428 245.118L334.202 243.69L337.735 242.658L334.929 241.038ZM347.392 233.843L349.325 232.727L352.131 234.347L353.939 232.295L356.371 233.027L354.583 235.043L358.491 235.427L358.054 236.999L354.126 236.627L354.77 238.895L352.048 239.147L351.403 236.879L347.891 237.923L346.664 236.495L350.198 235.463L347.392 233.843ZM359.855 226.647L361.787 225.531L364.593 227.151L366.402 225.099L368.833 225.831L367.046 227.847L370.953 228.231L370.517 229.803L366.589 229.431L367.233 231.699L364.51 231.951L363.866 229.683L360.353 230.727L359.127 229.299L362.66 228.267L359.855 226.647ZM372.317 219.452L374.25 218.336L377.056 219.956L378.864 217.904L381.296 218.636L379.509 220.652L383.416 221.036L382.98 222.608L379.051 222.236L379.696 224.504L376.973 224.756L376.329 222.488L372.816 223.532L371.59 222.104L375.123 221.072L372.317 219.452ZM397.242 205.061L399.175 203.945L401.981 205.565L403.79 203.513L406.221 204.245L404.434 206.261L408.341 206.645L407.905 208.217L403.977 207.845L404.621 210.113L401.898 210.365L401.254 208.097L397.741 209.141L396.515 207.713L400.048 206.681L397.242 205.061ZM409.705 197.866L411.638 196.75L414.444 198.37L416.252 196.318L418.684 197.05L416.897 199.066L420.804 199.45L420.368 201.022L416.439 200.65L417.084 202.918L414.361 203.17L413.717 200.902L410.204 201.946L408.978 200.518L412.511 199.486L409.705 197.866ZM422.168 190.671L424.101 189.555L426.907 191.175L428.715 189.123L431.147 189.855L429.359 191.871L433.267 192.255L432.83 193.827L428.902 193.455L429.546 195.723L426.824 195.975L426.179 193.707L422.667 194.751L421.44 193.323L424.974 192.291L422.168 190.671ZM434.63 183.475L436.563 182.359L439.369 183.979L441.178 181.927L443.609 182.659L441.822 184.675L445.729 185.059L445.293 186.631L441.365 186.259L442.009 188.527L439.286 188.779L438.642 186.511L435.129 187.555L433.903 186.127L437.436 185.095L434.63 183.475ZM459.556 169.085L461.489 167.969L464.295 169.589L466.103 167.537L468.535 168.269L466.747 170.285L470.655 170.669L470.218 172.241L466.29 171.869L466.934 174.137L464.211 174.389L463.567 172.121L460.055 173.165L458.828 171.737L462.362 170.705L459.556 169.085ZM472.018 161.889L473.951 160.773L476.757 162.393L478.565 160.341L480.997 161.073L479.21 163.089L483.117 163.473L482.681 165.045L478.753 164.673L479.397 166.941L476.674 167.193L476.03 164.925L472.517 165.969L471.291 164.541L474.824 163.509L472.018 161.889ZM484.481 154.694L486.414 153.578L489.22 155.198L491.028 153.146L493.46 153.878L491.672 155.894L495.58 156.278L495.143 157.85L491.215 157.478L491.86 159.746L489.137 159.998L488.492 157.73L484.98 158.774L483.754 157.346L487.287 156.314L484.481 154.694ZM496.944 147.499L498.877 146.383L501.683 148.003L503.491 145.951L505.923 146.683L504.135 148.699L508.043 149.083L507.606 150.655L503.678 150.283L504.322 152.551L501.599 152.803L500.955 150.535L497.442 151.579L496.216 150.151L499.75 149.119L496.944 147.499Z" fill="#EEF1FA"/>
    </g>
    <defs>
        <filter id="filter0_bd_8_2" x="-20" y="248.001" width="795" height="555.617" filterUnits="userSpaceOnUse" color-interpolation-filters="sRGB">
            <feFlood flood-opacity="0" result="BackgroundImageFix"/>
            <feGaussianBlur in="BackgroundImageFix" stdDeviation="17.5"/>
            <feComposite in2="SourceAlpha" operator="in" result="effect1_backgroundBlur_8_2"/>
            <feColorMatrix in="SourceAlpha" type="matrix" values="0 0 0 0 0 0 0 0 0 0 0 0 0 0 0 0 0 0 127 0" result="hardAlpha"/>
            <feOffset dy="74"/>
            <feGaussianBlur stdDeviation="40"/>
            <feComposite in2="hardAlpha" operator="out"/>
            <feColorMatrix type="matrix" values="0 0 0 0 0.0862745 0 0 0 0 0.0980392 0 0 0 0 0.180392 0 0 0 0.1 0"/>
            <feBlend mode="normal" in2="effect1_backgroundBlur_8_2" result="effect2_dropShadow_8_2"/>
            <feBlend mode="normal" in="SourceGraphic" in2="effect2_dropShadow_8_2" result="shape"/>
        </filter>
        <filter id="filter1_bd_8_2" x="-16.2529" y="107.335" width="795" height="555.617" filterUnits="userSpaceOnUse" color-interpolation-filters="sRGB">
            <feFlood flood-opacity="0" result="BackgroundImageFix"/>
            <feGaussianBlur in="BackgroundImageFix" stdDeviation="17.5"/>
            <feComposite in2="SourceAlpha" operator="in" result="effect1_backgroundBlur_8_2"/>
            <feColorMatrix in="SourceAlpha" type="matrix" values="0 0 0 0 0 0 0 0 0 0 0 0 0 0 0 0 0 0 127 0" result="hardAlpha"/>
            <feOffset dy="74"/>
            <feGaussianBlur stdDeviation="40"/>
            <feComposite in2="hardAlpha" operator="out"/>
            <feColorMatrix type="matrix" values="0 0 0 0 0.0862745 0 0 0 0 0.0980392 0 0 0 0 0.180392 0 0 0 0.1 0"/>
            <feBlend mode="normal" in2="effect1_backgroundBlur_8_2" result="effect2_dropShadow_8_2"/>
            <feBlend mode="normal" in="SourceGraphic" in2="effect2_dropShadow_8_2" result="shape"/>
        </filter>
        <filter id="filter2_bd_8_2" x="-11.0479" y="-34.7045" width="795" height="555.618" filterUnits="userSpaceOnUse" color-interpolation-filters="sRGB">
            <feFlood flood-opacity="0" result="BackgroundImageFix"/>
            <feGaussianBlur in="BackgroundImageFix" stdDeviation="17.5"/>
            <feComposite in2="SourceAlpha" operator="in" result="effect1_backgroundBlur_8_2"/>
            <feColorMatrix in="SourceAlpha" type="matrix" values="0 0 0 0 0 0 0 0 0 0 0 0 0 0 0 0 0 0 127 0" result="hardAlpha"/>
            <feOffset dy="74"/>
            <feGaussianBlur stdDeviation="40"/>
            <feComposite in2="hardAlpha" operator="out"/>
            <feColorMatrix type="matrix" values="0 0 0 0 0.0862745 0 0 0 0 0.0980392 0 0 0 0 0.180392 0 0 0 0.1 0"/>
            <feBlend mode="normal" in2="effect1_backgroundBlur_8_2" result="effect2_dropShadow_8_2"/>
            <feBlend mode="normal" in="SourceGraphic" in2="effect2_dropShadow_8_2" result="shape"/>
        </filter>
    </defs>
</svg>
