<svg width="99" height="26" viewBox="0 0 99 26" fill="none" xmlns="http://www.w3.org/2000/svg">
<path d="M42.815 17.626L41.7589 20.8179C41.7451 20.8697 41.7136 20.9152 41.6695 20.9468C41.6255 20.9784 41.5717 20.9942 41.5171 20.9916H38.9536C38.8002 20.9916 38.7548 20.9048 38.7785 20.7798L43.1822 8.32323C43.3289 7.89931 43.4019 7.45427 43.3982 7.00665C43.3964 6.96983 43.409 6.93372 43.4334 6.90577C43.4581 6.8778 43.4926 6.86012 43.53 6.85637H47.0524C47.1626 6.85637 47.2058 6.87754 47.2295 6.98549L52.227 20.7968C52.2702 20.9048 52.2486 20.9916 52.1168 20.9916H49.2596C49.2071 21.0002 49.1533 20.9898 49.1083 20.962C49.0633 20.9343 49.0302 20.8912 49.0156 20.8412L47.8926 17.626H42.815ZM47.0869 14.9272C46.6551 13.5027 45.7653 10.8929 45.3485 9.3604H45.3269C44.9726 10.8061 44.1801 13.1704 43.5991 14.9272H47.0869Z" fill="white"/>
<path d="M52.5788 15.7252C52.5788 12.6391 54.9351 10.0504 58.9651 10.0504C59.1401 10.0504 59.3603 10.0716 59.6908 10.0928V5.84252C59.6883 5.82221 59.6906 5.80163 59.6975 5.78231C59.7043 5.763 59.7156 5.74545 59.7303 5.73099C59.745 5.71653 59.7629 5.70554 59.7826 5.69882C59.8024 5.69212 59.8233 5.68986 59.844 5.69224H62.6193C62.7295 5.69224 62.7511 5.73457 62.7511 5.82135V18.5742C62.7452 19.1006 62.7748 19.6267 62.8396 20.1491C62.8396 20.257 62.818 20.3015 62.6862 20.3438C61.3141 20.9154 59.8384 21.2091 58.3474 21.2074C55.0883 21.2074 52.5788 19.3956 52.5788 15.7252ZM59.6908 12.6624C59.4283 12.5783 59.1523 12.5417 58.8765 12.5545C57.1811 12.5545 55.7276 13.5684 55.7276 15.5749C55.7276 17.7107 56.9825 18.6399 58.6563 18.6399C59.006 18.6543 59.3558 18.6107 59.6908 18.5107V12.6624Z" fill="white"/>
<path d="M75.362 15.575C75.362 18.9616 73.1159 21.2075 69.9454 21.2075C66.1791 21.2075 64.5074 18.4241 64.5074 15.6407C64.5074 12.5757 66.598 10.0505 69.9886 10.0505C73.535 10.0505 75.362 12.6625 75.362 15.575ZM67.6109 15.5962C67.6109 17.5012 68.5136 18.7035 69.9865 18.7035C71.2651 18.7035 72.2327 17.6261 72.2327 15.6407C72.2327 13.9473 71.5285 12.5545 69.857 12.5545C68.5806 12.5545 67.6109 13.6764 67.6109 15.5962Z" fill="white"/>
<path d="M79.9901 5.69228C80.165 5.69228 80.2061 5.71344 80.2061 5.86372V10.2875C80.809 10.1294 81.4306 10.0497 82.0547 10.0505C85.2942 10.0505 87.3395 12.2942 87.3395 15.1855C87.3395 19.222 84.0805 21.2074 80.7352 21.2074C79.5641 21.2154 78.3989 21.0477 77.2797 20.71C77.2407 20.689 77.2081 20.6585 77.1851 20.6213C77.1621 20.5842 77.1491 20.5418 77.1479 20.4984V5.84256C77.1479 5.73461 77.1911 5.69228 77.3013 5.69228H79.9901ZM81.5018 12.5968C81.0636 12.5915 80.6268 12.65 80.2061 12.7704V18.6293C80.4732 18.6889 80.7463 18.7173 81.0202 18.714C82.694 18.714 84.2123 17.7213 84.2123 15.4776C84.2167 13.5028 83.0504 12.5968 81.5084 12.5968H81.5018Z" fill="white"/>
<path d="M91.6481 16.4174C91.7583 17.6472 92.6394 18.661 94.7969 18.661C95.725 18.6786 96.6467 18.5093 97.5052 18.1636C97.5722 18.1213 97.637 18.1425 97.637 18.2716V20.3227C97.637 20.4728 97.5938 20.5343 97.4836 20.5808C96.6025 20.9916 95.635 21.2159 94.1146 21.2159C89.9743 21.2159 88.523 18.4324 88.523 15.757C88.523 12.7788 90.3934 10.0589 93.851 10.0589C97.1749 10.0589 98.4965 12.5841 98.4965 14.7156C98.5121 15.2 98.4753 15.6846 98.3863 16.1613C98.3833 16.2063 98.3637 16.2488 98.3311 16.2807C98.2987 16.3126 98.2552 16.3319 98.2094 16.3348C97.4556 16.4046 96.6985 16.4336 95.9416 16.4216L91.6481 16.4174ZM94.5119 14.324C94.879 14.3372 95.2465 14.3223 95.6113 14.2796V14.1293C95.6049 13.8962 95.5512 13.6668 95.4533 13.4543C95.3555 13.2418 95.2153 13.0505 95.0412 12.8917C94.8671 12.7329 94.6625 12.6096 94.4391 12.5292C94.2159 12.4488 93.9786 12.4128 93.7408 12.4232C92.3544 12.4232 91.7583 13.4392 91.6265 14.3282L94.5119 14.324Z" fill="white"/>
<path d="M18.6696 0.957275H29.3234V25.9572L18.6696 0.957275Z" fill="white"/>
<path d="M11.1624 0.957275H0.5V25.9572L11.1624 0.957275Z" fill="white"/>
<path d="M14.9161 10.1712L21.704 25.9573H17.255L15.2249 20.9302H10.2576L14.9161 10.1712Z" fill="white"/>
</svg>
