<svg width="91" height="29" viewBox="0 0 91 29" fill="none" xmlns="http://www.w3.org/2000/svg">
<path d="M89.4691 18.5992C89.3432 18.5983 89.2185 18.6233 89.1027 18.6727C88.987 18.7221 88.8826 18.7947 88.7961 18.8862C87.8871 19.8242 86.6981 20.3962 85.3131 20.3962C84.5358 20.3974 83.7699 20.2101 83.0811 19.8502C81.2671 18.9032 80.0941 16.8352 80.4201 14.5312C80.7761 12.0022 82.9871 10.1202 85.4651 10.1932C86.7871 10.2332 87.9221 10.7972 88.7991 11.7022C88.8854 11.7935 88.9896 11.866 89.1053 11.9152C89.2209 11.9644 89.3454 11.9892 89.4711 11.9882C90.0251 11.9882 90.5001 11.4982 90.5001 10.9682C90.5001 10.7212 90.4221 10.4382 90.2221 10.2332C89.0925 9.05252 87.5727 8.32226 85.9451 8.17817C82.0321 7.83017 78.5101 11.0182 78.3881 15.0642C78.2661 19.1302 81.3981 22.4382 85.3131 22.4382C87.2531 22.4382 88.9551 21.6612 90.2221 20.3572C90.4201 20.1532 90.5001 19.8672 90.5001 19.6232C90.4981 19.0902 90.0221 18.5992 89.4691 18.5992ZM72.0351 16.0522C73.3181 15.3172 74.1701 13.9522 74.1291 12.2822C74.0741 9.95717 72.1341 8.14717 69.8791 8.14717H63.6401C63.0941 8.14717 62.6511 8.60416 62.6511 9.16716V21.0502C62.6511 21.5692 63.0091 22.0452 63.5071 22.1022C64.1231 22.1722 64.6301 21.7462 64.6301 21.1282V18.5372C64.6301 18.3372 64.7611 18.1652 64.9471 18.1172L68.4531 17.2222L69.9001 16.8422C69.9959 16.8177 70.0973 16.8282 70.186 16.8718C70.2747 16.9155 70.345 16.9893 70.3841 17.0802L72.3431 21.5202C72.5031 21.8852 72.8501 22.1002 73.2151 22.1002C73.4484 22.0983 73.673 22.0116 73.8471 21.8562C74.1771 21.5682 74.2461 21.0682 74.0671 20.6632L72.0351 16.0532V16.0522ZM64.6301 15.6322V10.5392C64.6301 10.2992 64.8181 10.1082 65.0481 10.1082H69.8151C71.1991 10.1082 72.1501 11.0882 72.1501 12.3962C72.1501 13.7032 71.3711 14.6472 69.7801 14.9982L65.1371 16.0542C65.075 16.0671 65.0108 16.0659 64.9492 16.0506C64.8877 16.0353 64.8304 16.0062 64.7816 15.9656C64.7329 15.9251 64.6939 15.874 64.6677 15.8163C64.6414 15.7585 64.6286 15.6956 64.6301 15.6322ZM52.3901 8.92416C52.1801 8.46916 51.7351 8.19717 51.1981 8.19717C50.6611 8.19717 50.2151 8.46917 50.0061 8.92217L44.5441 20.6642C44.4731 20.8092 44.4341 20.9892 44.4341 21.1522C44.4341 21.7092 44.8561 22.1282 45.4191 22.1282C45.6082 22.1338 45.7946 22.0825 45.9542 21.9808C46.1138 21.8792 46.2392 21.7319 46.3141 21.5582L47.3311 19.3862C47.7875 19.5526 48.2567 19.6817 48.7341 19.7722C49.5261 19.9232 50.3241 19.9752 51.1111 19.9662C51.9011 19.9592 52.6791 19.8622 53.4461 19.7312C53.8291 19.6652 54.2061 19.5682 54.5871 19.4882L55.0531 19.3552L56.0771 21.5432C56.1512 21.7204 56.277 21.8712 56.438 21.9759C56.5991 22.0806 56.788 22.1344 56.9801 22.1302C57.6181 22.1302 57.9621 21.6282 57.9621 21.1552C57.9621 20.9892 57.9211 20.8112 57.8571 20.6742L52.3901 8.92416ZM53.1471 17.9642C52.4611 18.0812 51.7671 18.1692 51.0811 18.1742C50.3941 18.1802 49.7111 18.1382 49.0511 18.0102C48.7249 17.9491 48.4035 17.8652 48.0891 17.7592L48.9091 16.0042H48.9061L50.8191 11.9192C50.8517 11.8467 50.9047 11.7852 50.9714 11.742C51.0382 11.6989 51.1161 11.6759 51.1956 11.6759C51.2751 11.6759 51.3529 11.6989 51.4197 11.742C51.4865 11.7852 51.5394 11.8467 51.5721 11.9192L53.3331 15.6792L53.4211 15.8672L53.4851 16.0042L54.2821 17.7112L54.1721 17.7422C53.8321 17.8162 53.4921 17.9052 53.1471 17.9642ZM32.5351 10.2642C32.7471 9.20616 32.5791 8.13417 32.0671 7.24517C31.4751 6.22217 30.5291 5.53116 29.3991 5.29916C29.1332 5.24446 28.8624 5.21765 28.5911 5.21916C26.6711 5.21916 25.0551 6.60617 24.6601 8.59017C24.4433 9.65608 24.043 10.6762 23.4771 11.6052C23.4669 11.6224 23.4522 11.6366 23.4346 11.6461C23.417 11.6556 23.3971 11.6601 23.3771 11.6592C23.3555 11.6584 23.3347 11.6515 23.317 11.6392C23.2993 11.627 23.2854 11.61 23.2771 11.5902L19.5121 3.42017C18.9911 2.29117 18.0631 1.45317 16.9661 1.12217C15.0901 0.553166 13.0441 1.49817 12.2041 3.31917L8.30706 11.7682C8.30328 11.7764 8.29723 11.7834 8.28961 11.7884C8.282 11.7934 8.27314 11.796 8.26406 11.7962C8.23606 11.7962 8.23106 11.7802 8.22706 11.7682C7.60906 10.1932 6.14706 9.17517 4.49806 9.17517C3.96506 9.17517 3.44406 9.28417 2.94806 9.49717C1.95606 9.92317 1.19206 10.7372 0.79006 11.7892C0.392551 12.8258 0.403988 13.9747 0.822058 15.0032C1.55906 16.8212 2.79206 18.5762 4.38806 20.0772C4.42706 20.1132 4.43806 20.1672 4.41506 20.2152L3.15706 22.9472C2.20706 25.0102 3.00606 27.5032 4.93706 28.5072C5.49619 28.8011 6.11836 28.9549 6.75006 28.9552C8.29306 28.9552 9.72006 28.0262 10.3831 26.5892L11.4691 24.2332C11.4801 24.2081 11.4999 24.188 11.5248 24.1766C11.5497 24.1651 11.5779 24.1632 11.6041 24.1712C12.9128 24.5477 14.2672 24.7422 15.6291 24.7492C17.0871 24.7492 18.5711 24.5262 20.0331 24.0892C20.0593 24.0806 20.0877 24.0822 20.1128 24.0934C20.138 24.1047 20.158 24.1249 20.1691 24.1502L21.2431 26.4832C21.9331 27.9772 23.3671 28.9472 24.9031 28.9572H24.9261C25.5575 28.9582 26.1796 28.8048 26.7381 28.5102C28.6681 27.5052 29.4661 25.0052 28.5101 22.9352L27.1531 20.0012C27.1428 19.9783 27.14 19.9527 27.145 19.9282C27.1501 19.9036 27.1627 19.8812 27.1811 19.8642C29.9231 17.2472 31.8241 13.8382 32.5351 10.2642ZM9.70106 23.6472L8.72106 25.7732C8.54871 26.1535 8.27122 26.4766 7.9213 26.7045C7.57137 26.9323 7.16361 27.0554 6.74606 27.0592C6.40806 27.0592 6.08206 26.9812 5.77606 26.8252C4.71606 26.2822 4.28406 24.9092 4.81206 23.7602L5.85706 21.4922C5.8666 21.4714 5.88179 21.4537 5.90089 21.4412C5.91998 21.4286 5.94222 21.4217 5.96506 21.4212C5.98306 21.4212 6.00606 21.4262 6.02706 21.4422C7.14666 22.2618 8.35821 22.9478 9.63706 23.4862C9.67706 23.5022 9.69706 23.5362 9.70306 23.5542C9.70975 23.5688 9.71304 23.5848 9.71269 23.6009C9.71235 23.617 9.70837 23.6328 9.70106 23.6472ZM19.2661 22.3022C19.2597 22.3169 19.2501 22.33 19.2379 22.3406C19.2258 22.3511 19.2115 22.3588 19.1961 22.3632C18.0061 22.6882 16.8051 22.8532 15.6251 22.8532C10.1601 22.8532 4.38506 19.0362 2.47506 14.1652C2.02506 13.0152 2.56506 11.7002 3.68106 11.2342C3.94206 11.1242 4.21806 11.0682 4.49806 11.0682C5.39406 11.0682 6.18806 11.6202 6.52306 12.4772C7.77006 15.6602 11.9401 18.3502 15.6251 18.3502C16.1801 18.3502 16.7501 18.2952 17.3191 18.1862C17.3721 18.1762 17.4251 18.2002 17.4461 18.2502L19.2661 22.1972C19.273 22.2138 19.2766 22.2316 19.2766 22.2497C19.2766 22.2677 19.273 22.2855 19.2661 22.3022ZM14.7981 16.1192L15.5311 14.5282C15.5524 14.4792 15.5877 14.4375 15.6324 14.4083C15.6772 14.3792 15.7296 14.3638 15.7831 14.3642C15.8365 14.3645 15.8887 14.3801 15.9335 14.4092C15.9783 14.4383 16.0139 14.4795 16.0361 14.5282L16.7521 16.0812C16.7712 16.1221 16.7806 16.1669 16.7793 16.212C16.7781 16.2571 16.7664 16.3014 16.7451 16.3412C16.7255 16.3804 16.6968 16.4143 16.6612 16.4399C16.6257 16.4655 16.5844 16.4821 16.5411 16.4882C16.0387 16.5645 15.5288 16.578 15.0231 16.5282C14.9785 16.5232 14.9359 16.5076 14.8988 16.4825C14.8617 16.4574 14.8312 16.4237 14.8101 16.3842C14.7873 16.3441 14.7743 16.2992 14.7722 16.2531C14.7701 16.207 14.779 16.1611 14.7981 16.1192ZM25.8881 26.8252C25.5884 26.9795 25.2561 27.0598 24.9191 27.0592C24.502 27.0551 24.0947 26.9318 23.7454 26.704C23.396 26.4762 23.119 26.1532 22.9471 25.7732L16.3691 11.5032C16.3235 11.3992 16.2487 11.3107 16.1537 11.2485C16.0587 11.1864 15.9476 11.1533 15.8341 11.1533C15.7205 11.1533 15.6095 11.1864 15.5144 11.2485C15.4194 11.3107 15.3446 11.3992 15.2991 11.5032L13.2591 15.9292C13.2478 15.9546 13.2277 15.9751 13.2026 15.9868C13.1774 15.9986 13.1488 16.0009 13.1221 15.9932C11.7611 15.5102 10.4841 14.6982 9.52606 13.7112C9.51041 13.6938 9.50032 13.6721 9.49711 13.6489C9.49391 13.6258 9.49772 13.6022 9.50806 13.5812L13.9161 4.01917C14.0641 3.69917 14.2751 3.44117 14.5251 3.27317C15.1171 2.87317 15.7901 2.75417 16.4241 2.93617C16.7272 3.02532 17.0075 3.17874 17.246 3.38599C17.4845 3.59324 17.6755 3.84945 17.8061 4.13717L26.8531 23.7632C27.3831 24.9092 26.9491 26.2832 25.8881 26.8252ZM26.4141 18.0182C26.4005 18.0321 26.3838 18.0427 26.3654 18.0489C26.347 18.0552 26.3273 18.057 26.3081 18.0542C26.2899 18.0508 26.2728 18.0429 26.2585 18.0312C26.2441 18.0195 26.233 18.0043 26.2261 17.9872L24.2971 13.8012C24.288 13.7813 24.2845 13.7594 24.287 13.7377C24.2894 13.716 24.2978 13.6955 24.3111 13.6782C25.4011 12.2352 26.1481 10.5922 26.4711 8.92317C26.6761 7.87317 27.5741 7.11117 28.6091 7.11117H28.6111C28.7881 7.11117 28.9671 7.13517 29.1441 7.18017C30.2881 7.47317 30.9841 8.68617 30.7281 9.94017C30.1151 12.9412 28.6251 15.7332 26.4141 18.0182Z" fill="white"/>
</svg>
