<svg width="512" height="512" viewBox="0 0 512 512" fill="none" xmlns="http://www.w3.org/2000/svg">
<g clip-path="url(#clip0_623_113)">
<path d="M496.192 345.6L440.725 145.685C428.881 102.921 403.073 65.3471 367.409 38.9438C331.744 12.5405 288.273 -1.17492 243.914 -0.0195184C199.555 1.13589 156.856 17.0957 122.615 45.3198C88.3735 73.5439 64.5565 112.41 54.9546 155.733L12.0532 348.8C9.97735 358.154 10.028 367.854 12.2014 377.185C14.3748 386.516 18.6156 395.24 24.6108 402.714C30.606 410.187 38.2026 416.22 46.8403 420.365C55.478 424.511 64.9362 426.664 74.5172 426.667H151.467C156.363 450.78 169.445 472.458 188.496 488.029C207.547 503.601 231.395 512.107 256 512.107C280.605 512.107 304.453 503.601 323.504 488.029C342.555 472.458 355.637 450.78 360.533 426.667H434.56C444.418 426.662 454.142 424.38 462.973 419.999C471.805 415.618 479.505 409.256 485.472 401.409C491.44 393.562 495.514 384.443 497.377 374.762C499.241 365.082 498.821 355.101 496.192 345.6ZM256 469.333C242.81 469.279 229.96 465.15 219.206 457.513C208.453 449.875 200.322 439.102 195.925 426.667H316.075C311.678 439.102 303.547 449.875 292.793 457.513C282.04 465.15 269.189 469.279 256 469.333ZM451.52 375.573C449.53 378.212 446.95 380.348 443.986 381.811C441.023 383.275 437.758 384.024 434.453 384H74.5172C71.3228 384 68.1693 383.282 65.2894 381.899C62.4096 380.517 59.8769 378.506 57.8784 376.014C55.8798 373.522 54.4665 370.613 53.7426 367.501C53.0187 364.39 53.0027 361.156 53.6959 358.037L96.5972 164.971C104.157 130.97 122.865 100.472 149.748 78.3243C176.631 56.177 210.147 43.6517 244.966 42.7395C279.785 41.8274 313.91 52.5807 341.916 73.29C369.922 93.9994 390.201 123.476 399.531 157.035L454.997 356.949C455.903 360.111 456.06 363.439 455.457 366.672C454.853 369.904 453.505 372.952 451.52 375.573Z" fill="#b0b0b0"/>
</g>
<defs>
<clipPath id="clip0_623_113">
<rect width="512" height="512" fill="#b0b0b0"/>
</clipPath>
</defs>
</svg>
