<svg width="126" height="26" viewBox="0 0 126 26" fill="none" xmlns="http://www.w3.org/2000/svg">
<path d="M13.4643 20.6941C18.1298 20.6941 21.736 17.1594 21.736 12.7994C21.736 8.71453 18.3482 6.22054 16.1043 6.22054C12.9796 6.22054 10.4749 8.41931 10.1181 11.6835C10.052 12.288 9.57436 12.7949 8.96824 12.7906C7.96072 12.7834 6.49568 12.7747 5.56836 12.778C5.1691 12.7793 4.83916 12.4545 4.85881 12.0543C4.99867 9.22332 5.94274 6.57625 7.74279 4.54292C9.74294 2.28351 12.6558 0.957275 16.1043 0.957275C21.8982 0.957275 27.3677 6.23644 27.3677 12.7994C27.3677 20.0663 21.3636 25.9573 13.5876 25.9573C8.04217 25.9573 2.45695 22.3232 0.506893 17.2425C0.499879 17.2236 0.498177 17.2032 0.501975 17.1835C0.528101 17.0332 0.579584 16.8959 0.630299 16.7607C0.704066 16.5641 0.776294 16.3718 0.765845 16.1503L0.732034 15.4426C0.724268 15.2713 0.767536 15.1016 0.85631 14.9551C0.945086 14.8086 1.07534 14.692 1.23042 14.6202L1.51227 14.4886C1.67018 14.4153 1.80827 14.3051 1.91497 14.1671C2.02166 14.0291 2.09385 13.8675 2.12546 13.6957C2.21997 13.1767 2.67425 12.7994 3.2046 12.7994C4.03295 12.7994 4.75309 13.3517 5.02356 14.1369C6.32571 17.9162 8.39578 20.6941 13.4643 20.6941Z" fill="white"/>
<path d="M116.603 9.68955C115.569 9.68955 115.251 9.07165 115.251 8.37396C115.251 7.63646 115.51 7.05837 116.603 7.05837C117.695 7.05837 117.954 7.63646 117.954 8.37396C117.954 9.07149 117.675 9.68955 116.603 9.68955ZM97.7425 18.246V13.1235L96.2893 13.1163V12.5199C96.2893 11.8704 96.8158 11.3448 97.4635 11.348L97.7425 11.3496V9.17674L100.067 8.51903V11.3493H102.173V11.9514C102.173 12.1054 102.143 12.2578 102.084 12.4C102.025 12.5423 101.939 12.6715 101.831 12.7803C101.722 12.8891 101.594 12.9754 101.452 13.0343C101.31 13.0931 101.158 13.1234 101.005 13.1234H100.067V17.947C100.067 18.6896 100.486 18.9503 101.027 19.0401C101.663 19.1456 102.193 19.608 102.193 20.255V21.1361C99.9918 21.1361 97.7425 21.0387 97.7425 18.246Z" fill="white"/>
<path fill-rule="evenodd" clip-rule="evenodd" d="M51.8815 11.1286C49.5568 11.0687 46.6955 12.5437 46.6955 16.2314C46.6955 19.859 49.5568 21.2943 51.8815 21.2345C54.2658 21.2943 57.1071 19.859 57.1071 16.2314C57.1071 12.5437 54.2658 11.0687 51.8815 11.1286ZM51.8986 19.4238C50.2098 19.4238 49.0115 18.1894 49.0115 16.1564C49.0115 14.2227 50.2105 12.9491 51.8995 12.9491C53.5883 12.9491 54.774 14.2202 54.774 16.1536C54.774 18.1868 53.5874 19.4238 51.8986 19.4238Z" fill="white"/>
<path d="M63.2136 11.1505C65.2402 11.1505 67.3464 11.7085 67.3464 15.6951V21.0371H66.0508C65.4055 21.0371 64.8827 20.5123 64.8827 19.8651V15.4959C64.8827 13.6023 64.1872 12.8847 62.9752 12.8847C62.2995 12.8847 61.4254 13.403 61.008 13.8215V19.8653C61.008 20.0193 60.9778 20.1717 60.919 20.3139C60.8602 20.4561 60.7741 20.5854 60.6657 20.6941C60.5573 20.8029 60.4285 20.8892 60.2869 20.9481C60.1452 21.0069 59.9934 21.0373 59.84 21.0371H58.6635V11.3897H59.9743C60.2003 11.3896 60.4197 11.4664 60.5966 11.6076C60.7734 11.7488 60.8974 11.946 60.9484 12.167C61.5447 11.5093 62.3196 11.1505 63.2136 11.1505ZM70.0034 11.3726C70.2442 11.3725 70.4794 11.4472 70.6763 11.5864C70.8732 11.7256 71.0224 11.9226 71.1037 12.1503L73.2311 18.1297L75.3583 12.1505C75.4394 11.9228 75.5886 11.7258 75.7855 11.5865C75.9825 11.4473 76.2174 11.3726 76.4583 11.3727H78.1386L74.6739 20.2745C74.5881 20.4941 74.4384 20.6828 74.2442 20.8158C74.0501 20.9488 73.8206 21.02 73.5855 21.02H72.0985L68.3232 11.3726H70.0034Z" fill="white"/>
<path fill-rule="evenodd" clip-rule="evenodd" d="M87.3246 20.5512C86.5897 20.8502 85.0981 21.2484 83.5483 21.2484C80.8264 21.2484 78.7415 19.6739 78.7415 16.1259C78.7415 12.9367 80.7624 11.2315 83.2264 11.2315C86.2672 11.2315 87.5646 13.2792 87.429 16.0667C87.401 16.6426 86.9014 17.0627 86.3267 17.0627H81.0848C81.2039 18.6175 82.3364 19.4345 83.8263 19.4345C84.4116 19.4345 85.0269 19.4048 85.7641 19.2667C86.5459 19.1201 87.3246 19.6783 87.3246 20.476V20.5512ZM85.3248 15.4282C85.4845 13.9026 84.4581 13.0654 83.2264 13.0654C81.9944 13.0654 81.1638 13.9931 81.0848 15.4281L85.3248 15.4282Z" fill="white"/>
<path d="M90.5253 11.3926C90.7411 11.3925 90.9505 11.4652 91.1201 11.599C91.2897 11.7327 91.4097 11.9198 91.4607 12.1303C92.2555 11.5321 93.2491 11.1534 93.9443 11.1534C94.0041 11.1534 94.3815 11.1534 94.9776 11.2332V12.2676C94.9776 12.8236 94.4987 13.2463 93.9443 13.2463C93.3087 13.2463 92.3746 13.4855 91.6395 13.9042V21.0399H89.275V11.3924L90.5253 11.3926ZM117.795 19.8394V11.3639H116.618C115.973 11.3639 115.45 11.8886 115.45 12.5358V21.0111H116.626C117.272 21.0111 117.795 20.4864 117.795 19.8394ZM120.992 18.2664V13.1437H119.422V12.5415C119.422 11.8943 119.945 11.3696 120.591 11.3696H120.992V9.19707L123.317 8.5392V11.3696H125.423V11.9718C125.423 12.619 124.9 13.1437 124.255 13.1437H123.317V17.9675C123.317 18.7099 123.736 18.9706 124.277 19.0604C124.913 19.1661 125.443 19.6283 125.443 20.2753V21.1564C123.241 21.1564 120.992 21.0592 120.992 18.2664ZM35.0777 14.2384C35.0924 9.72762 38.4833 7.2071 41.7371 7.2071C43.5445 7.2071 45.2017 7.59785 46.5646 8.57439L46.0132 9.33318C45.6443 9.8409 44.9451 10.0426 44.3626 9.81158C43.5406 9.48551 42.7663 9.41667 42.1896 9.41667C39.5272 9.41667 37.5193 11.1327 37.5049 14.2383C37.5193 17.3437 39.5272 19.0845 42.1896 19.0845C42.7663 19.0845 43.5406 19.0158 44.3626 18.6897C44.9451 18.4587 45.6443 18.6359 46.0132 19.1436L46.5646 19.9024C45.2017 20.879 43.5447 21.2698 41.7371 21.2698C38.4833 21.2698 35.0924 18.7491 35.0777 14.2384ZM105.076 7.27762C105.721 7.27762 106.244 7.80233 106.244 8.44955V13.8222L111.026 7.79476C111.134 7.64689 111.276 7.5267 111.439 7.44391C111.603 7.36111 111.783 7.318 111.966 7.31806H114.09L108.684 14.1661L114.09 21.0113H111.966C111.783 21.0113 111.602 20.9682 111.439 20.8854C111.276 20.8026 111.134 20.6824 111.026 20.5345L106.244 14.5088V19.8394C106.244 20.4866 105.721 21.0113 105.076 21.0113H103.839V7.27762H105.076Z" fill="white"/>
</svg>
