<svg width="512" height="512" viewBox="0 0 512 512" fill="none" xmlns="http://www.w3.org/2000/svg">
<g clip-path="url(#clip0_623_151)">
<path d="M117.333 362.667C135.006 362.667 149.333 348.34 149.333 330.667C149.333 312.994 135.006 298.667 117.333 298.667C99.6601 298.667 85.3333 312.994 85.3333 330.667C85.3333 348.34 99.6601 362.667 117.333 362.667Z" fill="#929292"/>
<path d="M448 64H64C47.0261 64 30.7475 70.7428 18.7452 82.7452C6.74284 94.7475 0 111.026 0 128L0 448H512V128C512 111.026 505.257 94.7475 493.255 82.7452C481.253 70.7428 464.974 64 448 64ZM64 106.667H448C453.658 106.667 459.084 108.914 463.085 112.915C467.086 116.916 469.333 122.342 469.333 128V170.667H42.6667V128C42.6667 122.342 44.9143 116.916 48.9151 112.915C52.9158 108.914 58.342 106.667 64 106.667ZM42.6667 405.333V213.333H469.333V405.333H42.6667Z" fill="#929292"/>
</g>
<defs>
<clipPath id="clip0_623_151">
<rect width="512" height="512" fill="white"/>
</clipPath>
</defs>
</svg>
