<svg width="48" height="49" viewBox="0 0 48 49" fill="none" xmlns="http://www.w3.org/2000/svg">
    <path d="M6 20.9573H42M14 30.9573H16M24 30.9573H26M12 38.9573H36C37.5913 38.9573 39.1174 38.3251 40.2426 37.1999C41.3679 36.0747 42 34.5486 42 32.9573V16.9573C42 15.366 41.3679 13.8399 40.2426 12.7146C39.1174 11.5894 37.5913 10.9573 36 10.9573H12C10.4087 10.9573 8.88258 11.5894 7.75736 12.7146C6.63214 13.8399 6 15.366 6 16.9573V32.9573C6 34.5486 6.63214 36.0747 7.75736 37.1999C8.88258 38.3251 10.4087 38.9573 12 38.9573Z" stroke="white" stroke-width="2" stroke-linecap="round" stroke-linejoin="round"/>
</svg>
