<svg width="512" height="512" viewBox="0 0 512 512" fill="none" xmlns="http://www.w3.org/2000/svg">
<g clip-path="url(#clip0_623_142)">
<path d="M234.667 234.667H0V64C0 47.0261 6.74284 30.7475 18.7452 18.7452C30.7475 6.74284 47.0261 0 64 0L234.667 0V234.667ZM42.6667 192H192V42.6667H64C58.342 42.6667 52.9158 44.9143 48.9151 48.9151C44.9143 52.9158 42.6667 58.342 42.6667 64V192Z" fill="#929292"/>
<path d="M512 234.667H277.333V0H448C464.974 0 481.253 6.74284 493.255 18.7452C505.257 30.7475 512 47.0261 512 64V234.667ZM320 192H469.334V64C469.334 58.342 467.086 52.9158 463.085 48.9151C459.084 44.9143 453.658 42.6667 448 42.6667H320V192Z" fill="#929292"/>
<path d="M234.667 512H64C47.0261 512 30.7475 505.257 18.7452 493.255C6.74284 481.253 0 464.974 0 448L0 277.333H234.667V512ZM42.6667 320V448C42.6667 453.658 44.9143 459.084 48.9151 463.085C52.9158 467.086 58.342 469.333 64 469.333H192V320H42.6667Z" fill="#929292"/>
<path d="M448 512H277.333V277.333H512V448C512 464.974 505.257 481.253 493.255 493.255C481.253 505.257 464.974 512 448 512ZM320 469.333H448C453.658 469.333 459.084 467.086 463.085 463.085C467.086 459.084 469.334 453.658 469.334 448V320H320V469.333Z" fill="#929292"/>
</g>
<defs>
<clipPath id="clip0_623_142">
<rect width="512" height="512" fill="white"/>
</clipPath>
</defs>
</svg>
