<svg width="113" height="28" viewBox="0 0 113 28" fill="none" xmlns="http://www.w3.org/2000/svg">
<path fill-rule="evenodd" clip-rule="evenodd" d="M48.469 13.7953C48.787 12.3043 49.814 11.5453 51.165 11.5453C52.503 11.5453 53.482 12.3383 53.795 13.7953H48.469ZM51.238 8.96328C47.8 8.96328 45.661 11.6173 45.661 14.8643C45.661 18.2273 47.946 20.7213 51.343 20.7213C53.685 20.7213 55.106 19.6743 55.985 18.3563L53.8 17.0073C53.25 17.7333 52.37 18.1173 51.428 18.1173C49.885 18.1173 48.852 17.4193 48.5 16.0233H54.272L54.27 16.0293L56.374 16.0413C56.454 15.6733 56.501 15.2943 56.501 14.8653C56.501 12.0373 54.698 8.96428 51.239 8.96428L51.238 8.96328ZM37.984 18.0683C36.085 18.0683 34.944 16.7073 34.944 15.0283C34.944 13.3483 36.107 11.9873 37.984 11.9873C39.86 11.9873 41.024 13.3483 41.024 15.0273C41.024 16.7073 39.882 18.0683 37.984 18.0683ZM41.024 10.8823C40.21 9.92227 39.055 9.33428 37.622 9.33428C34.417 9.33428 32.112 11.8843 32.112 15.0283C32.112 18.1723 34.396 20.7213 37.622 20.7213C39.055 20.7213 40.21 20.1333 41.023 19.1733V20.4413H43.855V5.34528H41.023L41.024 10.8823ZM64.978 14.6073C65.769 15.1473 66.271 15.9603 66.271 17.0313C66.271 19.1973 64.781 20.6993 61.993 20.6993C59.37 20.6993 57.963 19.3833 57.403 18.0543L59.811 16.6783C59.811 16.6783 60.135 18.1143 61.95 18.1143C63.073 18.1143 63.419 17.6283 63.419 17.1993C63.419 16.9993 63.354 16.6343 62.555 16.3243C60.949 15.7033 57.845 15.4243 57.845 12.5903C57.845 10.2703 59.702 9.03328 61.993 9.03328C64.135 9.03328 65.511 10.3383 66.033 11.3533L63.678 12.7013C63.678 12.7013 63.225 11.5743 62.015 11.5743C60.805 11.5743 60.697 12.2593 60.697 12.4583C60.697 13.0383 61.301 13.2763 62.598 13.6513C63.366 13.8733 64.155 14.0753 64.98 14.6043L64.978 14.6073ZM112.5 12.0813H110.058V16.6773C110.058 18.1133 111.484 17.8043 112.5 17.8043V20.3893C112.5 20.3893 111.965 20.4773 111.031 20.4773C108.957 20.4773 107.271 19.8583 107.271 16.6773V12.0813H105.391V9.34128H107.271V6.24828H110.058V9.34128H112.5V12.0813ZM73.2 17.9143C74.357 17.9143 75.246 17.3503 75.696 16.4243L78.112 17.8413C77.165 19.5393 75.401 20.7203 73.2 20.7203C69.862 20.7203 67.529 18.1093 67.529 14.8873C67.529 11.6663 69.884 9.05428 73.2 9.05428C75.369 9.05428 77.126 10.2163 78.083 11.8913L75.672 13.3413C75.214 12.4273 74.332 11.8613 73.2 11.8613C71.514 11.8613 70.316 13.2153 70.316 14.8873C70.316 16.5593 71.503 17.9143 73.2 17.9143ZM98.71 18.4043C96.88 18.4043 95.779 17.0073 95.779 15.2833C95.779 13.5593 96.901 12.1633 98.71 12.1633C100.519 12.1633 101.641 13.5593 101.641 15.2833C101.641 17.0073 100.541 18.4043 98.71 18.4043ZM99.059 9.43928C102.149 9.43928 104.371 12.0563 104.371 15.2833C104.371 18.5103 102.17 21.1263 99.059 21.1263C97.677 21.1263 96.564 20.5233 95.779 19.5383V25.2433H93.049V9.74928H95.779V11.0283C96.564 10.0433 97.677 9.43928 99.059 9.43928ZM87.801 20.8393V9.77228H90.531V20.8393H87.801ZM82.714 11.6623C83.241 10.3213 84.314 9.55428 85.93 9.55028V12.7383C84.035 12.5503 82.666 13.5363 82.716 15.8643L82.714 15.8593V20.8393H79.984V9.77228H82.714V11.6623ZM87.801 8.29527V5.34528H90.621V8.29527H87.801ZM0.5 25.5243C0.5 27.0003 1.442 27.9573 2.894 27.9573H9.888C14.06 27.9573 17.474 26.5223 19.794 24.0103H0.5V25.5243ZM9.888 0.957275H2.894C1.442 0.957275 0.5 1.91428 0.5 3.39028V4.90428H19.794C17.474 2.39228 14.06 0.957275 9.888 0.957275ZM15.992 18.3043C15.992 19.4983 16.757 20.2733 17.937 20.2733H22.127C22.603 19.0743 22.922 17.7573 23.07 16.3363H17.937C16.757 16.3363 15.992 17.1103 15.992 18.3043ZM10.182 10.6203C10.182 11.8143 10.948 12.5883 12.128 12.5883H23.07C22.9375 11.239 22.6205 9.91437 22.128 8.65128H12.128C10.948 8.65128 10.182 9.42628 10.182 10.6203ZM12.126 18.3043C12.126 17.1103 11.361 16.3363 10.181 16.3363H0.5V20.2733H10.181C11.361 20.2733 12.126 19.4983 12.126 18.3043ZM6.317 10.6203C6.317 9.42628 5.552 8.65128 4.372 8.65128H0.5V12.5883H4.372C5.552 12.5883 6.317 11.8143 6.317 10.6203Z" fill="white"/>
</svg>
