<svg width="512" height="512" viewBox="0 0 512 512" fill="none" xmlns="http://www.w3.org/2000/svg">
<g clip-path="url(#clip0_623_137)">
<path d="M256 512C205.368 512 155.873 496.986 113.774 468.856C71.6751 440.727 38.863 400.745 19.487 353.967C0.110921 307.189 -4.95873 255.716 4.91908 206.057C14.7969 156.398 39.1785 110.783 74.9808 74.9808C110.783 39.1785 156.398 14.7969 206.057 4.91908C255.716 -4.95873 307.189 0.110921 353.967 19.487C400.745 38.863 440.727 71.6751 468.856 113.774C496.986 155.873 512 205.368 512 256C511.927 323.873 484.932 388.945 436.938 436.938C388.945 484.932 323.873 511.927 256 512ZM256 42.6668C213.807 42.6668 172.561 55.1786 137.478 78.6199C102.396 102.061 75.0525 135.379 58.9058 174.361C42.7591 213.343 38.5344 256.237 46.7659 297.619C54.9974 339.002 75.3155 377.014 105.151 406.85C134.986 436.685 172.998 457.003 214.381 465.234C255.763 473.466 298.658 469.241 337.639 453.094C376.621 436.948 409.939 409.604 433.38 374.522C456.822 339.439 469.333 298.193 469.333 256C469.271 199.44 446.775 145.214 406.781 105.219C366.787 65.225 312.561 42.7289 256 42.6668Z" fill="#ef4444"/>
<path d="M277.333 320H234.667V304.149C234.352 289.097 238.071 274.235 245.438 261.105C252.806 247.975 263.554 237.057 276.565 229.483C284.448 225.141 290.755 218.419 294.587 210.277C298.418 202.135 299.578 192.99 297.899 184.149C296.236 175.727 292.101 167.991 286.021 161.93C279.942 155.869 272.193 151.759 263.765 150.123C257.615 148.984 251.29 149.212 245.238 150.789C239.186 152.367 233.555 155.256 228.743 159.251C223.931 163.247 220.057 168.252 217.394 173.911C214.731 179.57 213.345 185.745 213.333 192H170.667C170.672 176.949 174.658 162.168 182.22 149.155C189.782 136.142 200.651 125.361 213.725 117.905C226.799 110.448 241.612 106.583 256.662 106.699C271.712 106.816 286.463 110.911 299.42 118.569C312.377 126.227 323.077 137.176 330.436 150.305C337.796 163.433 341.552 178.275 341.324 193.324C341.095 208.372 336.891 223.093 329.137 235.993C321.384 248.892 310.356 259.511 297.173 266.773C290.875 270.711 285.724 276.239 282.242 282.801C278.759 289.362 277.066 296.725 277.333 304.149V320Z" fill="#ef4444"/>
<path d="M277.333 362.667H234.667V405.333H277.333V362.667Z" fill="#ef4444"/>
</g>
<defs>
<clipPath id="clip0_623_137">
<rect width="512" height="512" fill="ef4444"/>
</clipPath>
</defs>
</svg>
