<svg width="512" height="512" viewBox="0 0 512 512" fill="none" xmlns="http://www.w3.org/2000/svg">
<g clip-path="url(#clip0_623_90)">
<path d="M405.333 170.667V149.333C405.333 109.728 389.6 71.7442 361.595 43.7387C333.589 15.7333 295.606 0 256 0C216.394 0 178.411 15.7333 150.405 43.7387C122.4 71.7442 106.667 109.728 106.667 149.333V170.667H42.6667V448C42.6667 464.974 49.4095 481.253 61.4118 493.255C73.4142 505.257 89.6928 512 106.667 512H405.333C422.307 512 438.586 505.257 450.588 493.255C462.591 481.253 469.333 464.974 469.333 448V170.667H405.333ZM149.333 149.333C149.333 121.044 160.571 93.9125 180.575 73.9086C200.579 53.9047 227.71 42.6667 256 42.6667C284.29 42.6667 311.421 53.9047 331.425 73.9086C351.429 93.9125 362.667 121.044 362.667 149.333V170.667H149.333V149.333ZM426.667 448C426.667 453.658 424.419 459.084 420.418 463.085C416.418 467.086 410.991 469.333 405.333 469.333H106.667C101.009 469.333 95.5825 467.086 91.5817 463.085C87.5809 459.084 85.3333 453.658 85.3333 448V213.333H426.667V448Z" fill="#929292"/>
<path d="M277.333 298.667H234.667V384H277.333V298.667Z" fill="#929292"/>
</g>
<defs>
<clipPath id="clip0_623_90">
<rect width="512" height="512" fill="white"/>
</clipPath>
</defs>
</svg>
