<svg width="52" height="45" viewBox="0 0 52 45" fill="none" xmlns="http://www.w3.org/2000/svg">
<path d="M0.86944 22.4792L13.2286 44.1731L38.3589 44.2199L51.1302 22.5729L38.771 0.878985L13.6357 0.83501L0.86944 22.4792ZM31.3741 31.9569L20.4504 31.9345L15.0789 22.5086L20.6284 13.1001L31.5521 13.1225L36.9235 22.5484L31.3741 31.9569ZM14.0193 6.62012L17.3828 12.1768L11.2932 22.5014L14.3675 27.8979L9.44076 30.8791L4.66296 22.4885L14.0221 6.62503L14.0193 6.62012ZM11.0514 33.7112L15.9781 30.73L18.5285 35.2011L31.3426 35.2285L34.8123 40.9591L15.1533 40.9114L11.0486 33.7063L11.0514 33.7112ZM37.5648 39.1527L34.2013 33.596L40.7121 22.5605L37.8234 17.4879L42.7502 14.5067L47.35 22.5755L37.5676 39.1576L37.5648 39.1527ZM41.1317 11.6725L36.205 14.6537L33.4768 9.86079L19.8082 9.83428L16.3385 4.10377L36.8491 4.14559L41.1367 11.6697L41.1317 11.6725Z" fill="url(#paint0_radial_142_140)"/>
<defs>
<radialGradient id="paint0_radial_142_140" cx="0" cy="0" r="1" gradientUnits="userSpaceOnUse" gradientTransform="translate(26.068 23.8953) rotate(57.4806) scale(23.7217 32.5782)">
<stop stop-color="#DAFA7E"/>
<stop offset="1" stop-color="#DAFA7E" stop-opacity="0.5"/>
</radialGradient>
</defs>
</svg>
