<svg width="144" height="27" viewBox="0 0 144 27" fill="none" xmlns="http://www.w3.org/2000/svg">
<path d="M17.702 22.6593C17.8189 21.9711 17.7577 21.2645 17.5242 20.6066C17.2907 19.9488 16.8926 19.3617 16.368 18.9013C15.5939 18.1917 14.5821 17.7978 13.532 17.7973C12.913 17.7973 12.317 17.6573 11.769 17.3743C11.0602 16.9964 10.4799 16.4161 10.102 15.7073C10.316 15.1673 10.412 14.5793 10.412 13.9453C10.412 15.6603 11.793 17.0453 13.509 17.0453H13.58C14.3935 17.0322 15.1692 16.6998 15.7398 16.1198C16.3104 15.5399 16.6301 14.7589 16.63 13.9453C16.63 13.3353 16.749 12.7473 16.94 12.1843C17.3138 11.2053 17.9873 10.3693 18.8644 9.79577C19.7414 9.2222 20.7772 8.94029 21.824 8.99028C21.0075 7.61754 19.8607 6.47076 18.488 5.65428V5.88927C18.4843 6.96531 18.1336 8.01145 17.488 8.87228C17.2967 8.71003 17.0889 8.56826 16.868 8.44928C17.44 7.72128 17.726 6.82927 17.726 5.91327C17.726 5.37327 17.63 4.83328 17.416 4.31528C17.1052 3.56037 16.5817 2.91207 15.9092 2.44923C15.2366 1.9864 14.4441 1.72897 13.628 1.70828H13.39C12.341 1.70828 11.317 1.84928 10.316 2.13128C8.24291 2.68669 6.35241 3.7777 4.83429 5.29476C3.31617 6.81183 2.22385 8.70157 1.667 10.7743C0.953 11.6443 0.524 12.7003 0.5 13.8283C0.572 6.75828 6.29 1.02828 13.39 0.957275H13.723C20.775 1.07428 26.47 6.75828 26.541 13.8273V14.1103C26.5188 15.233 26.1062 16.3129 25.374 17.1643C24.6988 17.9739 23.7791 18.5424 22.753 18.7843C22.371 18.8774 21.9792 18.9247 21.586 18.9253C20.5132 18.923 19.4693 18.5774 18.607 17.9393C18.297 18.3623 17.917 18.7143 17.511 19.0433C18.2081 19.9661 18.5544 21.1067 18.488 22.2613C19.8607 21.4448 21.0075 20.298 21.824 18.9253C22.134 18.9023 22.444 18.8543 22.753 18.7843C21.8714 20.4659 20.5459 21.8749 18.9205 22.8561C17.295 23.8374 15.4317 24.3545 13.533 24.3513C12.793 24.3513 12.103 23.9993 11.674 23.4353C11.3659 23.0209 11.1991 22.5186 11.198 22.0023C11.198 21.2983 11.531 20.6403 12.032 20.2173C12.508 20.3353 13.032 20.4053 13.556 20.4053C13.1272 20.4079 12.7166 20.5794 12.4134 20.8827C12.1101 21.1859 11.9386 21.5964 11.936 22.0253C11.936 22.9183 12.651 23.6463 13.556 23.6463H13.58C14.0088 23.6437 14.4194 23.4721 14.7226 23.1689C15.0259 22.8656 15.1974 22.4551 15.2 22.0263C15.2 21.1333 14.485 20.4053 13.58 20.4053C12.3955 20.4026 11.234 20.0777 10.22 19.4653C10.006 19.3253 9.792 19.1843 9.601 19.0433C9.18772 18.7181 8.81205 18.3478 8.481 17.9393C8.672 17.7983 8.863 17.6343 9.053 17.4463C9.58471 18.1418 10.2699 18.705 11.0552 19.092C11.8405 19.479 12.7046 19.6793 13.58 19.6773C14.2033 19.6794 14.8006 19.9272 15.2422 20.367C15.6839 20.8068 15.9343 21.403 15.939 22.0263C15.939 22.5423 15.772 23.0363 15.462 23.4583C16.249 23.2943 17.011 23.0593 17.726 22.7073L17.702 22.6593ZM23.015 12.0893C22.8692 11.2979 22.6127 10.5311 22.253 9.81128C21.6906 9.72118 21.1158 9.7455 20.563 9.88279C20.0103 10.0201 19.4909 10.2675 19.036 10.6103C18.5184 11.0042 18.0987 11.5122 17.8094 12.0948C17.5201 12.6774 17.3691 13.3188 17.368 13.9693C17.368 14.6033 17.225 15.1893 16.94 15.7303C16.5712 16.4382 15.9985 17.0192 15.296 17.3983C15.939 17.6333 16.511 18.0083 17.011 18.4783C17.6045 18.0277 18.0991 17.46 18.464 16.8103C18.964 15.9413 19.227 14.9793 19.227 13.9693C19.227 13.3813 19.441 12.8653 19.799 12.4423C20.1911 11.9877 20.7409 11.6986 21.3377 11.6333C21.9345 11.568 22.5338 11.7303 23.015 12.0893ZM23.182 13.8993C23.158 13.0533 22.443 12.3723 21.562 12.3483C21.1355 12.3456 20.7254 12.5123 20.4217 12.8117C20.1179 13.1111 19.9454 13.5188 19.942 13.9453V13.9923C19.965 14.8623 20.68 15.5423 21.562 15.5423C21.9885 15.5449 22.3986 15.3783 22.7023 15.0789C23.0061 14.7794 23.1786 14.3718 23.182 13.9453V13.8993ZM19.799 15.4953C19.632 16.1293 19.394 16.7643 19.036 17.3273C19.4881 17.6751 20.0073 17.9256 20.561 18.0631C21.1146 18.2006 21.6907 18.2221 22.253 18.1263C22.563 18.0793 22.872 17.9853 23.182 17.8673C23.938 17.5588 24.588 17.0373 25.0532 16.3662C25.5183 15.6952 25.7784 14.9034 25.802 14.0873V13.8753C25.802 12.8413 25.66 11.8083 25.374 10.7983C24.254 6.61828 20.942 3.30628 16.749 2.15528C17.5472 2.83445 18.1135 3.74582 18.369 4.76228V4.78527C20.55 5.93052 22.255 7.81096 23.182 10.0933C23.682 11.2913 23.944 12.6063 23.944 13.9933C23.944 14.7433 23.587 15.4253 23.015 15.8483C22.6043 16.1631 22.1025 16.3361 21.585 16.3413C21.2452 16.33 20.9114 16.2491 20.6042 16.1036C20.297 15.9581 20.0229 15.751 19.799 15.4953ZM13.342 26.9573C6.29 26.8393 0.595 21.1323 0.524 14.0873V13.8043C0.546392 12.6819 0.959032 11.6024 1.691 10.7513C2.3728 9.94935 3.28985 9.38254 4.312 9.13128C4.693 9.03628 5.098 8.98927 5.48 8.98927C6.552 8.98927 7.6 9.34227 8.458 9.97627C8.768 9.55327 9.148 9.20128 9.554 8.87228C8.86015 7.94666 8.50662 6.81014 8.553 5.65428C7.18042 6.47052 6.03365 7.61694 5.217 8.98927C4.907 9.01327 4.598 9.05928 4.288 9.13028C5.16955 7.44863 6.49506 6.04069 8.12053 5.05941C9.74601 4.07813 11.6093 3.56103 13.508 3.56428C14.248 3.56428 14.938 3.91628 15.367 4.48028C15.677 4.88028 15.844 5.37227 15.844 5.91327C15.8438 6.25366 15.769 6.58988 15.625 6.89826C15.4809 7.20665 15.271 7.47972 15.01 7.69827C14.51 7.58027 14.009 7.51027 13.485 7.51027C13.9138 7.50765 14.3244 7.33613 14.6276 7.03289C14.9309 6.72965 15.1024 6.31912 15.105 5.89028C15.105 4.99728 14.39 4.26828 13.485 4.26828H13.461C13.032 4.2709 12.6213 4.44256 12.318 4.74602C12.0148 5.04947 11.8434 5.46026 11.841 5.88927C11.841 6.78227 12.556 7.50928 13.461 7.50928C14.652 7.50928 15.796 7.83928 16.821 8.44928C17.035 8.59028 17.249 8.73128 17.44 8.87228C17.845 9.20128 18.226 9.57727 18.56 9.97627C18.369 10.1163 18.178 10.2813 17.988 10.4693C17.4563 9.77379 16.7711 9.21057 15.9858 8.82357C15.2005 8.43658 14.3365 8.23627 13.461 8.23828C12.9031 8.23016 12.3649 8.0311 11.936 7.67427C11.6766 7.4544 11.4678 7.18106 11.3238 6.87297C11.1799 6.56488 11.1042 6.22932 11.102 5.88927C11.102 5.34927 11.292 4.85628 11.579 4.45628C10.793 4.62128 10.006 4.87927 9.292 5.20827C9.1751 5.89645 9.23632 6.6031 9.46983 7.26092C9.70334 7.91874 10.1014 8.50583 10.626 8.96628C11.3998 9.67564 12.4112 10.0695 13.461 10.0703C14.081 10.0703 14.676 10.2103 15.224 10.4933C15.9332 10.871 16.5139 11.4513 16.892 12.1603C16.6701 12.7205 16.5646 13.32 16.582 13.9223C16.582 12.2073 15.2 10.8223 13.485 10.8223H13.461C12.6475 10.8354 11.8718 11.1678 11.3012 11.7477C10.7306 12.3277 10.4109 13.1087 10.411 13.9223C10.411 14.5323 10.292 15.1203 10.101 15.6833C9.72704 16.6622 9.05352 17.498 8.17649 18.0716C7.29947 18.6451 6.26373 18.9271 5.217 18.8773C6.03365 20.2496 7.18042 21.396 8.553 22.2123C8.49828 21.0665 8.84367 19.9374 9.53 19.0183C9.72 19.1833 9.935 19.3243 10.15 19.4413C9.58697 20.1665 9.28471 21.0602 9.292 21.9783C9.292 22.5183 9.387 23.0583 9.602 23.5753C9.91282 24.3302 10.4363 24.9785 11.1088 25.4413C11.7814 25.9042 12.5739 26.1616 13.39 26.1823H13.604C14.652 26.1823 15.677 26.0413 16.677 25.7593C18.7503 25.2041 20.6411 24.1132 22.1594 22.5961C23.6777 21.079 24.7702 19.1891 25.327 17.1163C26.041 16.2463 26.47 15.1903 26.493 14.0633C26.422 21.1333 20.703 26.8633 13.604 26.9333H13.318C13.39 26.9573 13.342 26.9573 13.342 26.9573ZM10.316 25.7823C9.51783 25.1031 8.95151 24.1917 8.696 23.1753V23.1523C6.51503 22.007 4.80996 20.1266 3.883 17.8443C3.38154 16.6054 3.12285 15.2818 3.121 13.9453C3.121 13.1943 3.478 12.5123 4.05 12.0903C4.45863 11.7715 4.96172 11.5977 5.48 11.5963C6.194 11.5963 6.838 11.9263 7.266 12.4193C7.433 11.7613 7.671 11.1503 8.029 10.5873C7.57691 10.2393 7.05775 9.98864 6.50413 9.85097C5.95051 9.71329 5.3744 9.69161 4.812 9.78728C3.84227 9.94159 2.95687 10.4297 2.30872 11.1673C1.66056 11.9049 1.29034 12.8458 1.262 13.8273V14.0633C1.262 15.0963 1.405 16.1293 1.692 17.1393C2.835 21.3433 6.122 24.6553 10.316 25.7823ZM4.812 18.1263C5.37439 18.2164 5.9492 18.1921 6.50198 18.0548C7.05476 17.9176 7.57414 17.6701 8.029 17.3273C8.54643 16.9334 8.9661 16.4256 9.25538 15.8432C9.54467 15.2608 9.69579 14.6196 9.697 13.9693C9.697 13.3353 9.84 12.7473 10.125 12.2073C10.4938 11.4993 11.0665 10.9183 11.769 10.5393H11.746C11.1066 10.2994 10.5228 9.93198 10.03 9.45928C9.43654 9.90989 8.94198 10.4776 8.577 11.1273C8.0761 11.9906 7.81284 12.9712 7.814 13.9693C7.814 14.5563 7.6 15.0733 7.243 15.4953C7.02122 15.7521 6.74695 15.9583 6.43868 16.1001C6.13041 16.2419 5.79532 16.316 5.456 16.3173C4.93785 16.3161 4.4348 16.1427 4.026 15.8243C4.216 16.6233 4.479 17.3983 4.812 18.1263ZM3.883 14.0393C3.931 14.8853 4.622 15.5893 5.503 15.5893C5.92949 15.5919 6.3396 15.4253 6.64333 15.1259C6.94705 14.8264 7.11956 14.4188 7.123 13.9923V13.9453C7.10942 13.5263 6.9322 13.1294 6.62934 12.8396C6.32648 12.5499 5.92212 12.3903 5.503 12.3953C4.598 12.3953 3.883 13.1233 3.883 14.0153V14.0393ZM37 7.15728H40.574L43.91 16.1293H43.958L47.245 7.15728H50.819V19.7933H48.556V9.64728H48.532L44.648 19.7933H43.052L39.216 9.64728H39.192V19.7933H37.024L37 7.15728ZM57.061 7.15728H65.543V9.13028H59.35V12.3483H65.235V14.2273H59.325V17.7973H65.854V19.7933H57.039L57.061 7.15728ZM75.645 12.6073C75.979 12.6073 76.289 12.5833 76.622 12.5363C76.932 12.4893 77.218 12.3953 77.504 12.2783C77.766 12.1373 77.98 11.9483 78.147 11.7143C78.314 11.4793 78.409 11.1503 78.409 10.7743C78.409 10.4223 78.338 10.1403 78.171 9.92928C78.004 9.71728 77.813 9.52928 77.575 9.41228C77.3189 9.26693 77.0344 9.1789 76.741 9.15428C76.4417 9.10672 76.1391 9.08331 75.836 9.08428H73.763V12.6303C73.787 12.6063 75.645 12.6073 75.645 12.6073ZM71.5 7.15728H75.955C76.551 7.15728 77.146 7.22728 77.718 7.34528C78.2505 7.46036 78.7587 7.66747 79.22 7.95728C79.649 8.23928 80.03 8.63828 80.268 9.08428C80.531 9.55428 80.673 10.1183 80.673 10.7753C80.673 11.6913 80.411 12.4433 79.887 13.0073C79.363 13.5943 78.648 13.9703 77.743 14.1813L81.15 19.7713H78.41L75.456 14.4163H73.788V19.7713H71.5V7.15728ZM95.539 10.1173C95.2085 9.66702 94.7529 9.3238 94.229 9.13028C93.7226 8.92323 93.18 8.81953 92.633 8.82528C92.013 8.82528 91.394 8.94227 90.822 9.17727C90.2939 9.41228 89.8164 9.74747 89.416 10.1643C89.0143 10.5798 88.7058 11.0761 88.511 11.6203C88.297 12.2073 88.177 12.8183 88.201 13.4283C88.201 14.1093 88.297 14.7443 88.511 15.3083C88.725 15.8713 89.011 16.3643 89.393 16.7883C89.774 17.1863 90.226 17.5153 90.751 17.7503C91.275 17.9853 91.87 18.0793 92.537 18.0793C93.228 18.0793 93.824 17.9383 94.372 17.6793C94.872 17.4213 95.325 17.0693 95.659 16.6233L97.493 17.8913C96.9413 18.5891 96.2305 19.1446 95.42 19.5113C94.61 19.8873 93.633 20.0993 92.537 20.0993C91.537 20.0993 90.608 19.9343 89.774 19.6053C88.968 19.2998 88.231 18.8368 87.606 18.2433C86.9919 17.647 86.5125 16.9262 86.2 16.1293C85.866 15.3073 85.7 14.4153 85.7 13.4293C85.7 12.4193 85.866 11.5023 86.224 10.6813C86.5542 9.89588 87.0498 9.19088 87.677 8.61427C88.3106 8.03108 89.0564 7.58328 89.869 7.29827C91.1576 6.83132 92.546 6.70996 93.896 6.94628C94.348 7.01628 94.777 7.13427 95.182 7.29827C95.587 7.46328 95.968 7.65127 96.35 7.88527C96.707 8.12027 97.017 8.40228 97.279 8.73128C97.279 8.77828 95.539 10.1173 95.539 10.1173ZM112.503 15.1433C112.509 15.8526 112.371 16.5557 112.098 17.2103C111.856 17.8039 111.481 18.3341 111.002 18.7603C110.526 19.1833 109.978 19.5353 109.382 19.7463C108.724 19.9812 108.031 20.1006 107.333 20.0993C106.635 20.0986 105.942 19.9792 105.284 19.7463C104.679 19.5245 104.121 19.1899 103.64 18.7603C103.174 18.3228 102.801 17.7956 102.544 17.2103C102.282 16.6003 102.163 15.9183 102.163 15.1433V7.15728H104.45V15.0493C104.45 15.4253 104.498 15.7773 104.593 16.1533C104.688 16.5021 104.85 16.8291 105.07 17.1163C105.284 17.3983 105.594 17.6333 105.951 17.8203C106.309 18.0083 106.785 18.0793 107.309 18.0793C107.857 18.0793 108.31 17.9853 108.667 17.8203C109.025 17.6563 109.311 17.4213 109.549 17.1163C109.763 16.8343 109.93 16.5063 110.025 16.1533C110.121 15.8013 110.168 15.4253 110.168 15.0493V7.15728H112.456C112.503 7.15728 112.503 15.1433 112.503 15.1433ZM122.772 12.6063C123.105 12.6063 123.415 12.5833 123.749 12.5363C124.082 12.4893 124.368 12.3953 124.63 12.2783C124.892 12.1373 125.107 11.9483 125.274 11.7143C125.44 11.4793 125.536 11.1503 125.536 10.7743C125.536 10.4223 125.464 10.1403 125.297 9.92928C125.146 9.70938 124.941 9.5315 124.702 9.41228C124.446 9.2669 124.161 9.17887 123.868 9.15428C123.569 9.10673 123.266 9.08332 122.963 9.08428H120.89V12.6303C120.914 12.6063 122.772 12.6063 122.772 12.6063ZM118.626 7.15728H123.082C123.677 7.15728 124.273 7.22728 124.845 7.34528C125.377 7.46022 125.885 7.66698 126.346 7.95628C126.775 8.23828 127.132 8.61427 127.394 9.08327C127.656 9.55327 127.799 10.1173 127.799 10.7743C127.799 11.6903 127.537 12.4423 127.013 13.0063C126.489 13.5933 125.774 13.9693 124.869 14.1803L128.276 19.7703H125.536L122.581 14.4153H120.914V19.7703H118.626V7.15728ZM136.4 14.3213L131.587 7.18128H134.375L137.591 12.4893L140.855 7.18128H143.5L138.687 14.3213V19.7933H136.4V14.3213Z" fill="white"/>
</svg>
