<svg width="106" height="29" viewBox="0 0 106 29" fill="none" xmlns="http://www.w3.org/2000/svg">
<path d="M7.749 10.4213C5.25 10.4213 4.024 12.6283 4.024 15.5753V22.9603H0.5V7.37628H3.962V11.4193H4.022C4.762 8.93328 6.235 6.92427 8.507 6.92427C10.106 6.92427 10.78 7.48428 10.78 7.48428L9.19 10.6943C9.19 10.6943 8.683 10.4213 7.749 10.4213ZM50.345 12.5613V22.9573H46.913V13.8273C46.913 11.2053 46.093 9.81728 43.997 9.81728C41.827 9.81728 40.777 11.5733 40.777 14.9413V22.9573H37.375V13.8263C37.375 11.3063 36.565 9.81627 34.49 9.81627C32.122 9.81627 31.21 11.8963 31.21 14.9403V22.9573H27.748V7.37628H31.21V10.9053H31.241C31.781 8.46228 33.252 6.95527 35.736 6.95527C38.199 6.95527 39.804 8.28228 40.413 10.6343C40.993 8.37028 42.536 6.95428 44.908 6.95428C48.218 6.95428 50.346 9.03428 50.346 12.5603L50.345 12.5613ZM17.705 6.92427C14.52 6.92427 12.435 8.42428 11.485 11.1303L14.417 12.1993C14.952 10.5663 16.067 9.63628 17.767 9.63628C19.681 9.63628 20.805 10.4813 20.805 11.7763C20.805 13.1023 19.91 13.3793 17.889 13.7063C15.641 14.0693 10.294 14.1883 10.294 18.7093C10.294 21.3573 12.504 23.3503 15.823 23.3503C18.318 23.3503 20.017 22.3283 20.803 20.4263H20.834V22.9573H24.267V13.3733C24.265 9.18028 22.16 6.92427 17.705 6.92427ZM20.895 15.6243C20.895 18.8913 19.281 20.9903 16.703 20.9903C14.88 20.9903 13.787 19.9643 13.787 18.4863C13.787 17.1003 14.911 16.1373 17.067 15.7413C19.273 15.3353 20.384 14.8333 20.894 13.6313V15.6233L20.895 15.6243ZM62.556 6.95428C59.93 6.95428 58.196 8.40128 57.453 10.5743V7.37628H53.807V28.9573H57.422V19.7613H57.452C58.257 22.1153 59.932 23.4103 62.556 23.4103C66.716 23.4103 69.694 19.9743 69.694 15.1203C69.692 10.3003 66.716 6.95428 62.556 6.95428ZM61.659 20.5173C58.777 20.5173 57.179 18.4223 57.179 15.1673C57.179 11.9123 58.967 9.81728 61.659 9.81728C64.349 9.81728 66.139 12.0143 66.139 15.1673C66.139 18.3223 64.351 20.5173 61.659 20.5173ZM105.5 22.8873V22.9853L91.392 22.9903V22.8883C93.427 21.7363 94.831 20.5633 96.094 19.3383H101.887L105.5 22.8873ZM102.004 4.47328L98.428 0.957275H98.325C98.325 0.957275 98.385 7.50928 92.381 13.4673C86.506 19.2993 79.597 19.3133 79.597 19.3133V19.4153L83.24 22.9923C83.24 22.9923 90.048 23.0593 96.062 17.1463C102.055 11.2543 102.004 4.47328 102.004 4.47328Z" fill="white"/>
</svg>
