<svg width="129" height="34" viewBox="0 0 129 34" fill="none" xmlns="http://www.w3.org/2000/svg">
<path fill-rule="evenodd" clip-rule="evenodd" d="M8.792 22.2643V25.7073L0.5 17.4573L2.231 15.7343L8.792 22.2643ZM12.252 25.7073H8.792L17.083 33.9573L18.815 32.2343L12.252 25.7073ZM31.932 19.1803L33.662 17.4573L17.08 0.957275L15.353 2.68428L21.913 9.21128H17.949L13.369 4.66428L11.639 6.38728L14.486 9.22028H12.496V22.0273H25.367V20.0473L28.215 22.8813L29.947 21.1583L25.367 16.6023V12.6573L31.932 19.1803ZM9.655 8.35328L7.92 10.0773L9.778 11.9253L11.509 10.2023L9.656 8.35427L9.655 8.35328ZM24.381 23.0053L22.651 24.7283L24.507 26.5763L26.239 24.8533L24.381 23.0053ZM5.942 12.0473L4.21 13.7703L8.79 18.3263V14.8813L5.942 12.0473ZM19.677 25.7143H16.217L20.796 30.2703L22.527 28.5473L19.677 25.7143Z" fill="white"/>
<path d="M126.24 25.6873C125.124 25.6873 124.25 25.3863 123.627 24.7813C123.003 24.1763 122.691 23.3353 122.691 22.2713V15.6713H120.688V13.2003H122.702L123.061 9.90028H125.42V13.2003H128.5V15.6753H125.42V21.9123C125.413 22.2538 125.541 22.5843 125.776 22.8323C125.896 22.9593 126.042 23.059 126.205 23.1245C126.367 23.1901 126.541 23.22 126.716 23.2123H128.5V25.6873H126.24ZM114.191 25.9203C112.702 25.9203 111.505 25.5673 110.598 24.8603C109.698 24.1613 109.081 23.1616 108.858 22.0443H111.819C111.948 22.4733 112.236 22.8373 112.623 23.0643C113.099 23.3379 113.642 23.4717 114.191 23.4503C115.77 23.4503 116.564 23.0103 116.564 22.1603C116.564 21.7373 116.315 21.4133 115.819 21.1903C115.241 20.9441 114.637 20.765 114.019 20.6563C113.303 20.5179 112.593 20.3443 111.894 20.1363C111.182 19.9276 110.549 19.5094 110.078 18.9363C109.585 18.3493 109.337 17.5773 109.335 16.6213C109.328 16.1182 109.437 15.6204 109.654 15.1666C109.872 14.7128 110.191 14.3153 110.587 14.0053C111.424 13.3103 112.585 12.9633 114.07 12.9653C115.554 12.9653 116.733 13.2953 117.607 13.9553C118.475 14.6072 119.073 15.5564 119.286 16.6213H116.32C116.004 15.8403 115.259 15.4413 114.078 15.4403C112.811 15.4403 112.179 15.8333 112.179 16.6203C112.181 16.8011 112.232 16.978 112.326 17.1327C112.42 17.2874 112.553 17.4143 112.712 17.5003C113.118 17.7447 113.57 17.9051 114.039 17.9723C114.626 18.0723 115.207 18.2053 115.779 18.3723C116.372 18.5413 116.953 18.7483 117.519 18.9923C118.07 19.2401 118.537 19.6441 118.861 20.1543C119.236 20.7523 119.423 21.4489 119.398 22.1543C119.41 22.6793 119.296 23.1996 119.065 23.6713C118.834 24.1439 118.494 24.5546 118.072 24.8693C117.19 25.5693 115.897 25.9193 114.191 25.9203ZM105.362 14.2143C104.45 13.3973 103.172 12.9893 101.528 12.9893C100.218 12.9893 99.119 13.3393 98.231 14.0423C97.356 14.726 96.7376 15.6851 96.476 16.7643H99.275C99.417 16.3563 99.689 16.0043 100.049 15.7633C100.486 15.4716 101.005 15.326 101.53 15.3473C102.3 15.3473 102.906 15.5453 103.35 15.9373C103.575 16.1457 103.751 16.4012 103.866 16.6856C103.98 16.97 104.03 17.2762 104.013 17.5823V18.1783H100.807C99.333 18.1783 98.175 18.5483 97.333 19.2893C96.9317 19.6308 96.6111 20.0569 96.3941 20.5371C96.1771 21.0172 96.0692 21.5394 96.078 22.0663C96.0627 22.5872 96.1594 23.1054 96.3614 23.5858C96.5634 24.0662 96.8661 24.4978 97.249 24.8513C98.028 25.5843 99.06 25.9513 100.345 25.9513C101.141 25.9695 101.929 25.7872 102.636 25.4213C103.203 25.1454 103.684 24.7184 104.024 24.1873H104.139L104.372 25.7273H106.74V17.5873C106.735 16.1583 106.276 15.0343 105.362 14.2143ZM104.016 20.8843C104.032 21.255 103.965 21.6247 103.822 21.9669C103.678 22.3091 103.461 22.6155 103.186 22.8643C102.637 23.3503 101.886 23.5943 100.935 23.5943C100.243 23.5943 99.713 23.4363 99.348 23.1283C99.1714 22.985 99.0298 22.8034 98.934 22.5972C98.8381 22.391 98.7906 22.1656 98.795 21.9383C98.795 20.8383 99.518 20.2923 100.935 20.2923H104.016V20.8843ZM88.973 25.9473C87.177 25.9473 85.741 25.3733 84.666 24.2273C83.592 23.0793 83.054 21.4923 83.052 19.4653C83.052 17.4433 83.588 15.8573 84.66 14.7093C85.731 13.5613 87.169 12.9873 88.973 12.9893C90.439 12.9893 91.653 13.3773 92.617 14.1553C93.5618 14.9044 94.236 15.9417 94.537 17.1093H91.821C91.5531 16.5922 91.1429 16.1625 90.6388 15.8709C90.1347 15.5793 89.5578 15.4378 88.976 15.4633C88.5341 15.4479 88.0945 15.5341 87.6912 15.7155C87.288 15.8969 86.9317 16.1684 86.65 16.5093C86.06 17.2093 85.765 18.1943 85.765 19.4653C85.765 20.7373 86.06 21.7233 86.65 22.4223C86.9306 22.7647 87.2865 23.0377 87.69 23.2198C88.0935 23.402 88.5336 23.4884 88.976 23.4723C89.5579 23.4968 90.1347 23.3548 90.6386 23.0628C91.1426 22.7709 91.5528 22.3412 91.821 21.8243H94.537C94.2372 22.9932 93.5628 24.0318 92.617 24.7813C91.655 25.5583 90.44 25.9473 88.973 25.9473ZM72.955 30.4333L74.85 25.7163L69.762 13.2293H72.722L76.156 22.0663H76.271L79.71 13.2293H82.67L75.798 30.4333H72.955ZM67.204 14.2143C66.291 13.3973 65.013 12.9893 63.369 12.9893C62.059 12.9893 60.957 13.3393 60.073 14.0423C59.1972 14.7254 58.5783 15.6847 58.317 16.7643H61.117C61.257 16.3553 61.529 16.0043 61.89 15.7633C62.3274 15.4709 62.8464 15.3252 63.372 15.3473C64.141 15.3473 64.748 15.5443 65.192 15.9373C65.4173 16.1454 65.5936 16.4009 65.7082 16.6853C65.8229 16.9698 65.873 17.2761 65.855 17.5823V18.1783H62.648C61.174 18.1783 60.016 18.5483 59.175 19.2893C58.7731 19.6303 58.452 20.0563 58.2348 20.5366C58.0176 21.0168 57.9097 21.5393 57.919 22.0663C57.903 22.5869 57.999 23.105 58.2003 23.5854C58.4016 24.0659 58.7036 24.4975 59.086 24.8513C59.865 25.5843 60.896 25.9513 62.182 25.9513C62.9777 25.9695 63.7652 25.7872 64.472 25.4213C65.04 25.1457 65.521 24.7187 65.862 24.1873H65.976L66.208 25.7273H68.572V17.5873C68.572 16.1583 68.116 15.0343 67.204 14.2143ZM65.853 20.8843C65.8697 21.2552 65.8039 21.6251 65.6604 21.9675C65.5169 22.3099 65.2992 22.6162 65.023 22.8643C64.475 23.3513 63.725 23.5943 62.773 23.5943C62.08 23.5943 61.547 23.4383 61.185 23.1283C61.0083 22.9851 60.8667 22.8035 60.7709 22.5972C60.675 22.391 60.6275 22.1656 60.632 21.9383C60.639 20.8423 61.352 20.2943 62.772 20.2923H65.852L65.853 20.8843ZM51.843 19.4663C52.265 19.3543 52.673 19.1943 53.059 18.9913C53.5092 18.7458 53.9305 18.4506 54.315 18.1113C54.7789 17.6865 55.1371 17.1591 55.361 16.5713C55.63 15.8813 55.762 15.1463 55.751 14.4063C55.751 12.8363 55.248 11.5763 54.24 10.6313C53.231 9.68528 51.92 9.21328 50.304 9.21628H43.434V25.7163H46.394V19.5943H48.641L52.908 25.7163H56.225L51.843 19.4663ZM46.394 16.9843V11.8143H50.063C50.903 11.8143 51.566 12.0413 52.053 12.4943C52.539 12.9473 52.783 13.5823 52.787 14.3993C52.787 15.2163 52.541 15.8533 52.048 16.3093C51.5057 16.7784 50.8032 17.0202 50.087 16.9843H46.394Z" fill="white"/>
</svg>
