<svg width="118" height="27" viewBox="0 0 118 27" fill="none" xmlns="http://www.w3.org/2000/svg">
<path d="M19.6294 21.0022H19.9609V26.9573H18.9859C12.6484 26.9573 8.9825 23.357 8.9825 17.4603V14.4244L11.0495 13.8989C11.6539 13.7432 12.1999 13.4319 12.6289 12.9842C13.0579 12.5366 13.3504 11.9723 13.4869 11.369C13.6234 10.7657 13.5649 10.1235 13.3504 9.53958C13.1359 8.95578 12.7654 8.44978 12.2779 8.06058C11.7905 7.67138 11.2055 7.43777 10.5815 7.37947C9.9575 7.32107 9.3335 7.41837 8.7875 7.69077C8.222 7.96327 7.754 8.39138 7.4225 8.91688C7.091 9.44228 6.9155 10.0456 6.9155 10.6684V23.6489H0.5V10.4543C0.5 10.0651 0.519499 9.65638 0.577999 9.26718C1.1825 4.57708 5.2775 0.957275 10.2305 0.957275C14.7349 0.957275 18.5179 3.93478 19.6294 7.98268C20.2144 10.104 20.0194 12.3615 19.1029 14.366C18.3229 16.0591 17.0554 17.4798 15.4759 18.4528C16.0219 20.613 17.1334 21.0022 19.6294 21.0022ZM35.5023 9.55908V13.1983H34.8978C33.6498 13.1983 32.6749 13.5486 31.9729 14.2298C31.2709 14.9109 30.9199 15.845 30.9199 17.0322V23.5905H27.3904V9.77318H30.9199V11.5636C31.9729 10.2208 33.2989 9.55908 34.8978 9.55908H35.5023ZM50.6538 17.9663H39.9483C40.1628 18.8031 40.6698 19.5426 41.3718 20.0486C42.1128 20.5741 43.0098 20.8465 43.9068 20.8076C44.6673 20.8076 45.4278 20.6519 46.1103 20.3211C46.7343 20.0486 47.2803 19.6205 47.6898 19.095L50.0493 21.1579C49.3083 22.0336 48.3723 22.7342 47.3193 23.2013C46.2078 23.6878 44.9988 23.9408 43.7703 23.9214C42.4053 23.9408 41.0403 23.61 39.8313 22.9678C38.6808 22.3645 37.7448 21.4498 37.0818 20.3405C36.4383 19.2118 36.0873 17.9468 36.0873 16.6624C36.0873 15.378 36.4188 14.0935 37.0428 12.9648C37.6668 11.875 38.5833 10.9798 39.6948 10.3765C40.8453 9.75368 42.1323 9.42288 43.4388 9.44228C45.5058 9.44228 47.2413 10.1235 48.6258 11.5052C50.0103 12.8869 50.7123 14.619 50.7123 16.7013C50.7513 17.1295 50.7123 17.5381 50.6538 17.9663ZM45.6813 13.3151C45.0378 12.8091 44.2578 12.5366 43.4388 12.5366C42.6198 12.5366 41.8398 12.8091 41.1963 13.3151C40.5528 13.8405 40.1043 14.5801 39.9093 15.378H46.9683C46.7928 14.5606 46.3248 13.8405 45.6813 13.3151ZM73.352 10.863C74.288 11.7971 74.775 13.0426 74.775 14.619V23.61H71.246V15.6699C71.246 14.8136 70.992 14.1519 70.505 13.6459C70.017 13.1399 69.354 12.8869 68.535 12.8869C67.6772 12.8869 66.9752 13.1399 66.4292 13.6654C65.8832 14.1908 65.6297 14.872 65.6297 15.7283V23.61H62.1002V15.6699C62.1002 14.833 61.8467 14.1519 61.3592 13.6459C60.8522 13.1399 60.1892 12.8869 59.3702 12.8869C58.9802 12.8675 58.6097 12.9259 58.2392 13.0621C57.8882 13.1983 57.5567 13.4124 57.2642 13.6654C56.9912 13.9378 56.7767 14.2492 56.6402 14.619C56.5037 14.9693 56.4452 15.3585 56.4452 15.7283V23.61H52.9158V9.79258H56.4647V11.2133C57.4982 10.0456 58.8632 9.46177 60.5597 9.46177C61.4567 9.44227 62.3342 9.63688 63.1337 10.0456C63.8747 10.4348 64.4792 10.9992 64.9082 11.6998C66.0587 10.2013 67.6187 9.44228 69.608 9.44228C71.168 9.46178 72.416 9.92888 73.352 10.863ZM91.643 16.6819C91.643 18.7447 90.941 20.4573 89.517 21.839C88.094 23.2208 86.339 23.9214 84.213 23.9019C82.107 23.9019 80.333 23.2013 78.909 21.8196C77.486 20.4378 76.764 18.7253 76.764 16.6624C76.764 14.5995 77.486 12.8869 78.909 11.5052C80.333 10.1235 82.107 9.42287 84.213 9.42287C86.319 9.42287 88.094 10.1235 89.517 11.5052C90.941 12.9064 91.662 14.6384 91.643 16.6819ZM86.943 19.4259C87.626 18.6863 88.016 17.7133 88.016 16.7013C88.016 15.6893 87.626 14.7163 86.943 13.9768C86.592 13.6265 86.163 13.3345 85.695 13.1399C85.227 12.9453 84.74 12.848 84.233 12.848C83.726 12.848 83.238 12.9453 82.77 13.1399C82.302 13.3345 81.873 13.607 81.522 13.9768C80.82 14.7163 80.43 15.6893 80.43 16.7013C80.43 17.7133 80.82 18.6863 81.522 19.4259C82.244 20.1265 83.219 20.5157 84.233 20.5157C85.247 20.4962 86.222 20.107 86.943 19.4259ZM98.097 13.0037V18.7447C98.097 19.9319 98.741 20.5157 100.008 20.5157C100.632 20.4962 101.256 20.3405 101.822 20.0486V23.3375C101.022 23.7462 100.145 23.9603 99.248 23.9408C97.707 23.9408 96.537 23.5322 95.757 22.7148C94.977 21.8974 94.587 20.7687 94.587 19.3286V13.0232H92.384V9.81207H94.587V7.51567L98.117 6.30908V9.81207H101.841V13.0232H98.097V13.0037ZM117.421 17.9663H106.716C106.931 18.8031 107.438 19.5426 108.14 20.0486C108.881 20.5741 109.778 20.8465 110.675 20.8076C111.435 20.8076 112.195 20.6519 112.878 20.3211C113.502 20.0486 114.048 19.6205 114.477 19.095L116.836 21.1579C116.095 22.0336 115.159 22.7342 114.106 23.2013C112.995 23.6878 111.786 23.9408 110.558 23.9214C109.193 23.9408 107.828 23.61 106.619 22.9678C105.468 22.3645 104.532 21.4498 103.869 20.3405C103.226 19.2118 102.875 17.9468 102.875 16.6624C102.875 15.378 103.206 14.0935 103.83 12.9648C104.454 11.875 105.371 10.9798 106.482 10.3765C107.633 9.75368 108.92 9.42288 110.226 9.44228C112.293 9.44228 114.028 10.1235 115.413 11.5052C116.797 12.8869 117.499 14.619 117.499 16.7013C117.499 17.1295 117.48 17.5576 117.421 17.9663ZM112.449 13.3151C111.805 12.8091 111.026 12.5366 110.207 12.5366C109.388 12.5366 108.608 12.8091 107.964 13.3151C107.321 13.8405 106.872 14.5801 106.677 15.378H113.736C113.56 14.5606 113.092 13.8405 112.449 13.3151Z" fill="white"/>
</svg>
