<svg width="512" height="512" viewBox="0 0 512 512" fill="none" xmlns="http://www.w3.org/2000/svg">
<g clip-path="url(#clip0_623_128)">
<path d="M491.093 187.52C478.507 176 462.08 170.24 444.8 170.88C427.733 171.733 411.947 179.2 400.213 191.787L331.52 267.093C319.787 247.68 298.453 234.667 274.133 234.667H191.787V213.333H199.893C230.827 213.333 255.787 188.16 255.787 157.44C255.787 129.92 236.16 106.667 209.067 102.187L138.88 90.4533C132.48 89.3867 127.787 83.84 127.787 77.2267C127.787 69.9733 133.76 64 141.013 64H191.787C203.52 64 213.12 73.6 213.12 85.3333H255.787C255.787 50.1333 226.987 21.3333 191.787 21.3333V0H149.12V21.3333H141.013C110.08 21.3333 85.12 46.5067 85.12 77.2267C85.12 104.747 104.747 128 131.84 132.48L202.027 144.213C208.427 145.28 213.12 150.827 213.12 157.44C213.12 164.693 207.147 170.667 199.893 170.667H149.12C137.387 170.667 127.787 161.067 127.787 149.333H85.12C85.12 184.533 113.92 213.333 149.12 213.333V234.667H64C28.8 234.667 0 263.467 0 298.667V448C0 483.2 28.8 512 64 512H286.933L495.787 277.547C519.04 251.307 516.907 210.987 491.093 187.307V187.52ZM464 249.387L267.947 469.547H64C52.2667 469.547 42.6667 459.947 42.6667 448.213V298.88C42.6667 287.147 52.2667 277.547 64 277.547H274.347C287.787 277.547 298.667 288.427 298.667 301.867C298.667 313.813 289.707 324.267 277.76 325.973L167.68 341.76L173.653 384L283.733 368.213C308.907 364.587 329.173 347.093 337.28 324.267L431.787 220.587C435.627 216.32 440.96 213.76 446.72 213.547C452.48 213.547 458.027 215.253 462.293 219.093C471.04 226.987 471.68 240.64 463.787 249.387H464Z" fill="#929292"/>
</g>
<defs>
<clipPath id="clip0_623_128">
<rect width="512" height="512" fill="white"/>
</clipPath>
</defs>
</svg>
