<svg width="113" height="25" viewBox="0 0 113 25" fill="none" xmlns="http://www.w3.org/2000/svg">
<path d="M0.5 3.15728C0.5 2.86837 0.556905 2.58229 0.667465 2.31537C0.778026 2.04846 0.940075 1.80593 1.14436 1.60164C1.34865 1.39735 1.59118 1.2353 1.8581 1.12474C2.12501 1.01418 2.41109 0.957275 2.7 0.957275H11.3C11.5889 0.957275 11.875 1.01418 12.1419 1.12474C12.4088 1.2353 12.6513 1.39735 12.8556 1.60164C13.0599 1.80593 13.222 2.04846 13.3325 2.31537C13.4431 2.58229 13.5 2.86837 13.5 3.15728V4.85728C13.5 5.14901 13.3841 5.4288 13.1778 5.63509C12.9715 5.84138 12.6917 5.95728 12.4 5.95728H1.6C1.45554 5.95728 1.3125 5.92882 1.17905 5.87354C1.04559 5.81826 0.924326 5.73724 0.822182 5.63509C0.720037 5.53295 0.639013 5.41169 0.583733 5.27823C0.528452 5.14477 0.5 5.00173 0.5 4.85728V3.15728ZM0.5 10.0573C0.5 9.91282 0.528452 9.76978 0.583733 9.63632C0.639013 9.50287 0.720037 9.3816 0.822182 9.27946C0.924326 9.17731 1.04559 9.09629 1.17905 9.04101C1.3125 8.98573 1.45554 8.95728 1.6 8.95728H22.3C22.8835 8.95728 23.4431 9.18906 23.8556 9.60164C24.2682 10.0142 24.5 10.5738 24.5 11.1573V16.8573C24.5 17.0017 24.4715 17.1448 24.4163 17.2782C24.361 17.4117 24.28 17.5329 24.1778 17.6351C24.0757 17.7372 23.9544 17.8183 23.821 17.8735C23.6875 17.9288 23.5445 17.9573 23.4 17.9573H2.7C2.41109 17.9573 2.12501 17.9004 1.8581 17.7898C1.59118 17.6792 1.34865 17.5172 1.14436 17.3129C0.940075 17.1086 0.778026 16.8661 0.667465 16.5992C0.556905 16.3323 0.5 16.0462 0.5 15.7573V10.0573ZM11.5 22.0573C11.5 21.7655 11.6159 21.4857 11.8222 21.2795C12.0285 21.0732 12.3083 20.9573 12.6 20.9573H23.4C23.6917 20.9573 23.9715 21.0732 24.1778 21.2795C24.3841 21.4857 24.5 21.7655 24.5 22.0573V22.7573C24.5 23.0462 24.4431 23.3323 24.3325 23.5992C24.222 23.8661 24.0599 24.1086 23.8556 24.3129C23.6513 24.5172 23.4088 24.6792 23.1419 24.7898C22.875 24.9004 22.5889 24.9573 22.3 24.9573H13.7C13.4111 24.9573 13.125 24.9004 12.8581 24.7898C12.5912 24.6792 12.3487 24.5172 12.1444 24.3129C11.9401 24.1086 11.778 23.8661 11.6675 23.5992C11.5569 23.3323 11.5 23.0462 11.5 22.7573V22.0573ZM38.096 15.6983H40.407L44.7 22.7153H49.956L45.196 15.2033C47.837 14.2943 49.378 12.2583 49.378 9.31328C49.378 5.18628 46.488 2.95728 41.838 2.95728H33.5V22.7153H38.096V15.6983ZM38.096 11.9563V6.83727H41.59C43.764 6.83727 44.865 7.77328 44.865 9.39728C44.865 10.9923 43.765 11.9553 41.59 11.9553H38.096V11.9563ZM57.863 23.0173C60.753 23.0173 63.394 21.5593 64.468 18.7803L60.78 17.5973C60.367 18.8633 59.294 19.5233 57.918 19.5233C56.24 19.5233 55.056 18.3953 54.754 16.4133H64.578V15.2583C64.578 11.1583 62.183 7.91027 57.781 7.91027C53.598 7.91027 50.516 11.1573 50.516 15.4503C50.516 19.9633 53.488 23.0173 57.863 23.0173ZM57.725 11.3233C59.349 11.3233 60.202 12.4233 60.23 13.7173H54.89C55.33 12.1213 56.377 11.3233 57.725 11.3233ZM67.073 18.8353C67.073 21.8073 68.642 22.8533 71.779 22.8533C72.825 22.8533 73.65 22.7703 74.421 22.6603V19.0553C73.925 19.1103 73.678 19.1383 73.155 19.1383C72.054 19.1383 71.421 18.9183 71.421 17.7073V11.8453H74.255V8.21328H71.421V4.19528H67.073V8.21328H65.229V11.8453H67.073V18.8353ZM90.172 15.4773C90.172 10.9653 87.172 7.91027 82.907 7.91027C78.614 7.91027 75.642 10.9653 75.642 15.4783C75.642 19.9913 78.614 23.0183 82.907 23.0183C87.172 23.0183 90.172 19.9903 90.172 15.4773ZM80.018 15.4773C80.018 12.9473 81.146 11.5153 82.907 11.5153C84.668 11.5153 85.797 12.9463 85.797 15.4783C85.797 18.0103 84.668 19.4403 82.907 19.4403C81.146 19.4403 80.018 18.0093 80.018 15.4773ZM106.027 15.4773C106.027 10.9653 103.028 7.91027 98.762 7.91027C94.469 7.91027 91.497 10.9653 91.497 15.4783C91.497 19.9913 94.469 23.0183 98.762 23.0183C103.028 23.0183 106.027 19.9903 106.027 15.4773ZM95.873 15.4773C95.873 12.9473 97.001 11.5153 98.762 11.5153C100.524 11.5153 101.652 12.9463 101.652 15.4783C101.652 18.0103 100.524 19.4403 98.762 19.4403C97.001 19.4403 95.873 18.0093 95.873 15.4773ZM112.5 2.95728H108.097V22.7153H112.5V2.95728Z" fill="white"/>
</svg>
