<svg width="131" height="27" viewBox="0 0 131 27" fill="none" xmlns="http://www.w3.org/2000/svg">
<path d="M35.843 6.69021H39.424L39.76 8.55321C40.46 7.07921 41.969 6.35721 43.562 6.35721C44.344 6.35721 45.129 6.55121 45.661 6.77521L44.82 11.0842C44.1843 10.7102 43.4585 10.5172 42.721 10.5262C41.268 10.5262 40.091 11.5022 40.091 13.6692V20.5922H35.843V6.69021ZM47.133 15.4162V6.60221H51.445V14.6092C51.445 16.2222 52.379 17.0842 53.741 17.0842C55.131 17.0842 56.321 16.0282 56.321 13.6922V6.60221H60.632V20.5042H57.032L56.549 18.6712C55.869 19.7812 54.167 20.8382 52.069 20.8382C49.257 20.8382 47.133 19.0562 47.133 15.4162ZM66.402 6.69021L66.879 8.52321C67.551 7.41321 69.202 6.35721 71.279 6.35721C74.023 6.35721 76.095 8.10921 76.095 11.7502V20.5922H71.836V12.6412C71.836 11.0012 70.994 10.1112 69.594 10.1112C68.304 10.1112 67.1 11.1672 67.1 13.5572V20.5922H62.841V6.69021H66.402ZM77.077 6.60221H81.337L83.853 16.0882L86.093 9.84821L84.988 6.60221H89.218L91.958 16.0882L94.39 6.60221H98.675L94.139 20.5922H89.769L87.891 15.0252L85.954 20.5922H81.61L77.077 6.60221ZM98.921 13.5972C98.921 8.81721 102.371 6.35721 105.546 6.35721C107.495 6.35721 108.887 7.12921 109.58 7.93121L109.969 6.68821H113.893V20.5072H110.164L109.58 19.1552C108.996 19.8442 107.745 20.8392 105.348 20.8392C101.927 20.8392 98.921 18.0192 98.921 13.5992V13.5972ZM109.749 13.5972C109.749 11.3602 108.302 9.97921 106.463 9.97921C104.599 9.97921 103.179 11.3892 103.179 13.5972C103.179 15.8052 104.599 17.2192 106.463 17.2192C108.302 17.2162 109.749 15.8352 109.749 13.5972ZM118.35 26.2372L120.709 19.8712L115.119 6.60221H119.698L122.817 15.2692L125.625 6.60221H130.092L122.705 26.2372H118.35ZM19.88 26.2222C16.817 26.5022 14.257 22.9122 12.293 21.0922C11.301 28.2452 0.493003 27.5672 0.500003 20.3122C0.504003 17.2642 0.500003 9.81721 0.500003 6.86521C0.500003 5.80421 0.791003 4.73521 1.338 3.82921C2.375 2.07121 4.378 0.936207 6.418 0.959207C9.493 0.962207 16.895 0.954207 19.88 0.959207C27.142 0.959207 27.832 11.7622 20.655 12.7352L24.061 16.1362C27.803 19.6562 24.994 26.3762 19.88 26.2222ZM18.23 21.9662C20.342 24.1402 23.71 20.7722 21.537 18.6642L15.633 12.7682H12.33V16.0702L17.434 21.1662L18.23 21.9662ZM4.076 20.3152C4.028 23.3372 8.799 23.3482 8.751 20.3152V6.86521C8.791 5.35821 7.198 4.16021 5.758 4.62521C5.26701 4.77101 4.837 5.07303 4.53325 5.48543C4.22951 5.89782 4.06862 6.39806 4.075 6.91021L4.076 20.3152ZM19.88 9.19721C22.913 9.24421 22.91 4.48021 19.88 4.52721H11.862C12.471 5.81021 12.316 7.80721 12.327 9.19721H19.88Z" fill="white"/>
</svg>
