<svg width="512" height="512" viewBox="0 0 512 512" fill="none" xmlns="http://www.w3.org/2000/svg">
<g clip-path="url(#clip0_623_116)">
<path d="M233.195 58.6667C228.616 41.8191 218.62 26.9462 204.75 16.3428C190.88 5.73935 173.907 -0.00553131 156.448 -0.00553131C138.989 -0.00553131 122.016 5.73935 108.146 16.3428C94.2757 26.9462 84.2802 41.8191 79.7013 58.6667H0V101.333H79.7013C84.2802 118.181 94.2757 133.054 108.146 143.657C122.016 154.261 138.989 160.006 156.448 160.006C173.907 160.006 190.88 154.261 204.75 143.657C218.62 133.054 228.616 118.181 233.195 101.333H512V58.6667H233.195ZM156.437 117.333C149.054 117.333 141.835 115.144 135.696 111.042C129.557 106.939 124.772 101.109 121.946 94.2868C119.12 87.4651 118.381 79.9586 119.821 72.7166C121.262 65.4747 124.818 58.8225 130.039 53.6013C135.26 48.3802 141.912 44.8245 149.154 43.384C156.396 41.9435 163.902 42.6828 170.724 45.5085C177.546 48.3342 183.377 53.1193 187.479 59.2587C191.581 65.3981 193.771 72.6162 193.771 80C193.754 89.8962 189.815 99.3823 182.817 106.38C175.82 113.378 166.334 117.316 156.437 117.333Z" fill="#b0b0b0"/>
<path d="M355.563 176C338.122 176.062 321.18 181.83 307.325 192.423C293.469 203.016 283.46 217.852 278.827 234.667H0V277.333H278.827C283.398 294.185 293.389 309.063 307.258 319.671C321.127 330.279 338.102 336.026 355.563 336.026C373.023 336.026 389.998 330.279 403.867 319.671C417.736 309.063 427.727 294.185 432.299 277.333H512V234.667H432.299C427.665 217.852 417.656 203.016 403.801 192.423C389.945 181.83 373.004 176.062 355.563 176ZM355.563 293.333C348.179 293.333 340.961 291.144 334.821 287.042C328.682 282.939 323.897 277.109 321.071 270.287C318.246 263.465 317.506 255.959 318.947 248.717C320.387 241.475 323.943 234.822 329.164 229.601C334.385 224.38 341.037 220.825 348.279 219.384C355.521 217.943 363.028 218.683 369.85 221.508C376.671 224.334 382.502 229.119 386.604 235.259C390.706 241.398 392.896 248.616 392.896 256C392.885 265.898 388.948 275.387 381.949 282.386C374.95 289.385 365.461 293.322 355.563 293.333Z" fill="#b0b0b0"/>
<path d="M156.437 352C138.985 352.048 122.029 357.81 108.161 368.404C94.2923 378.998 84.274 393.842 79.6373 410.667H0V453.333H79.7013C84.2802 470.181 94.2757 485.054 108.146 495.657C122.016 506.261 138.989 512.006 156.448 512.006C173.907 512.006 190.88 506.261 204.75 495.657C218.62 485.054 228.616 470.181 233.195 453.333H512V410.667H233.195C228.56 393.849 218.548 379.01 204.688 368.417C190.828 357.824 173.882 352.058 156.437 352ZM156.437 469.333C149.054 469.333 141.835 467.144 135.696 463.042C129.557 458.939 124.772 453.109 121.946 446.287C119.12 439.465 118.381 431.959 119.821 424.717C121.262 417.475 124.818 410.823 130.039 405.601C135.26 400.38 141.912 396.825 149.154 395.384C156.396 393.944 163.902 394.683 170.724 397.509C177.546 400.334 183.377 405.119 187.479 411.259C191.581 417.398 193.771 424.616 193.771 432C193.754 441.896 189.815 451.382 182.817 458.38C175.82 465.378 166.334 469.316 156.437 469.333Z" fill="#b0b0b0"/>
</g>
<defs>
<clipPath id="clip0_623_116">
<rect width="512" height="512" fill="white"/>
</clipPath>
</defs>
</svg>
