<svg width="512" height="512" viewBox="0 0 512 512" fill="none" xmlns="http://www.w3.org/2000/svg">
<g clip-path="url(#clip0_623_130)">
<path d="M512 106.667C512 71.4667 483.2 42.6667 448 42.6667H64C28.8 42.6667 0 71.4667 0 106.667V469.333H42.6667V512H85.3333V469.333H426.667V512H469.333V469.333H512V106.667ZM469.333 426.667H42.6667V362.667H85.3333V320H42.6667V192H85.3333V149.333H42.6667V106.667C42.6667 94.9334 52.2667 85.3334 64 85.3334H448C459.733 85.3334 469.333 94.9334 469.333 106.667V426.667ZM277.333 128C206.72 128 149.333 185.387 149.333 256C149.333 326.613 206.72 384 277.333 384C347.947 384 405.333 326.613 405.333 256C405.333 185.387 347.947 128 277.333 128ZM277.333 341.333C230.187 341.333 192 303.147 192 256C192 208.853 230.187 170.667 277.333 170.667C317.013 170.667 350.08 197.973 359.68 234.667H298.667V277.333H359.68C350.08 314.027 317.013 341.333 277.333 341.333Z" fill="#929292"/>
</g>
<defs>
<clipPath id="clip0_623_130">
<rect width="512" height="512" fill="white"/>
</clipPath>
</defs>
</svg>
