<svg width="114" height="27" viewBox="0 0 114 27" fill="none" xmlns="http://www.w3.org/2000/svg">
<path d="M57.015 7.45728C52.591 7.45728 49.401 10.3823 49.401 14.7703C49.401 19.1573 52.991 22.0823 57.415 22.0823C60.088 22.0823 62.445 21.0103 63.903 19.2023L60.837 17.4063C60.027 18.3043 58.797 18.8283 57.415 18.8283C55.496 18.8283 53.865 17.8123 53.26 16.1883H64.488C64.576 15.7323 64.628 15.2613 64.628 14.7653C64.628 10.3823 61.438 7.45728 57.015 7.45728ZM53.224 13.3473C53.724 11.7273 55.095 10.7073 57.011 10.7073C58.93 10.7073 60.301 11.7273 60.797 13.3473H53.224ZM100.162 7.45728C95.738 7.45728 92.549 10.3823 92.549 14.7703C92.549 19.1573 96.139 22.0823 100.563 22.0823C103.235 22.0823 105.591 21.0103 107.05 19.2023L103.985 17.4063C103.175 18.3043 101.945 18.8283 100.563 18.8283C98.643 18.8283 97.012 17.8123 96.407 16.1883H107.635C107.723 15.7323 107.775 15.2613 107.775 14.7653C107.775 10.3823 104.586 7.45728 100.162 7.45728ZM96.375 13.3473C96.876 11.7273 98.247 10.7073 100.162 10.7073C102.081 10.7073 103.452 11.7273 103.949 13.3473H96.375ZM80.736 14.7693C80.736 17.2073 82.307 18.8323 84.743 18.8323C86.394 18.8323 87.632 18.0723 88.269 16.8333L91.347 18.6333C90.072 20.7863 87.684 22.0823 84.743 22.0823C80.315 22.0823 77.13 19.1573 77.13 14.7693C77.13 10.3823 80.319 7.45728 84.743 7.45728C87.684 7.45728 90.068 8.75328 91.347 10.9073L88.269 12.7063C87.632 11.4663 86.394 10.7073 84.743 10.7073C82.311 10.7073 80.736 12.3313 80.736 14.7693ZM113.786 2.98927V21.6763H110.179V2.98728H113.786V2.98927ZM15.306 0.957275L30.112 26.9573H0.5L15.306 0.957275ZM52.322 2.98828L41.219 22.4883L30.116 2.98828H34.279L41.219 15.1763L48.159 2.98828H52.322ZM75.928 7.86328V11.8003C75.5122 11.6722 75.0801 11.6048 74.645 11.6003C72.317 11.6003 70.638 13.2263 70.638 15.6633V21.6763H67.032V7.86328H70.638V11.6013C70.638 9.53727 73.007 7.86328 75.928 7.86328Z" fill="white"/>
</svg>
